<?xml version="1.0" encoding="UTF-8"?>
<svg width="170px" height="51px" viewBox="0 0 170 51" version="1.1" xmlns="http://www.w3.org/2000/svg" xmlns:xlink="http://www.w3.org/1999/xlink">
    <!-- Generator: Sketch 46.2 (44496) - http://www.bohemiancoding.com/sketch -->
    <title>apple</title>
    <desc>Created with Sketch.</desc>
    <defs>
        <polygon id="path-1" points="0.000377777778 2.68427256e-14 170 0 170 50.3699926 0.000377777778 50.3699926 0.000377777778 0"></polygon>
    </defs>
    <g id="Website" stroke="none" stroke-width="1" fill="none" fill-rule="evenodd">
        <g id="home" transform="translate(-352.000000, -2110.000000)">
            <g id="app" transform="translate(0.000000, 1605.000000)">
                <g id="apple" transform="translate(352.000000, 505.000000)">
                    <g id="Group-3">
                        <mask id="mask-2" fill="white">
                            <use xlink:href="#path-1"></use>
                        </mask>
                        <g id="Clip-2"></g>
                        <path d="M163.952156,49.2341407 L5.95541481,49.2341407 C3.28704444,49.2341407 1.12111852,47.0757704 1.12111852,44.4111778 L1.12111852,5.94962222 C1.12111852,3.28628889 3.28704444,1.12036296 5.95541481,1.12036296 L163.952156,1.12036296 C166.623044,1.12036296 168.780156,3.28628889 168.780156,5.94962222 L168.781415,44.4111778 C168.781415,47.0770296 166.623044,49.2341407 163.952156,49.2341407 M163.952156,-0.000377777778 L5.95541481,-0.000377777778 C2.67252593,-0.000377777778 0.000377777778,2.66925185 0.000377777778,5.95088148 L0.000377777778,44.4111778 C0.000377777778,47.6902889 2.67252593,50.3699926 5.95541481,50.3699926 L163.952156,50.3699926 C167.232526,50.3699926 170.000378,47.6902889 170.000378,44.4111778 L170.000378,5.95088148 C170.000378,2.66925185 167.232526,-0.000377777778 163.952156,-0.000377777778" id="Fill-1" fill="#FFFFFF" mask="url(#mask-2)"></path>
                    </g>
                    <path d="M37.938837,24.913437 C37.9023185,20.8548444 41.2620222,18.8803259 41.4156519,18.7884 C39.5129111,16.0142519 36.5637259,15.6352148 35.5273556,15.6049926 C33.0503926,15.3443259 30.6477259,17.0871407 29.3859481,17.0871407 C28.0989852,17.0871407 26.1559481,15.6301778 24.0618,15.6729926 C21.3669852,15.7145481 18.8459481,17.2747704 17.4632815,19.6975852 C14.6098,24.6376593 16.7379481,31.8972889 19.4718,35.8904 C20.8393556,37.8472889 22.4373556,40.0295852 24.5289852,39.9515111 C26.5752815,39.8684 27.3396519,38.6481778 29.8090593,38.6481778 C32.2558,38.6481778 32.9735778,39.9515111 35.106763,39.9024 C37.3029111,39.8684 38.6855778,37.9392148 40.0052815,35.9646963 C41.5856519,33.7244741 42.2203185,31.5157333 42.2455037,31.4024 C42.1938741,31.3860296 37.9803926,29.7766963 37.938837,24.913437" id="Fill-4" fill="#FFFFFF"></path>
                    <path d="M33.9095852,12.9781778 C35.0101778,11.6018074 35.7632148,9.72928889 35.5541778,7.82906667 C33.9612148,7.89958519 31.9690667,8.93091852 30.8218815,10.2770667 C29.8069185,11.4632889 28.9002519,13.4075852 29.1344741,15.2360296 C30.9238815,15.3695111 32.7611407,14.3331407 33.9095852,12.9781778" id="Fill-6" fill="#FFFFFF"></path>
                    <path d="M62.6543185,32.6842 L61.2376519,28.3082741 C61.0878,27.861237 60.8069852,26.8084963 60.3926889,25.1513111 L60.3423185,25.1513111 C60.1773556,25.8640519 59.9116519,26.9167926 59.5464667,28.3082741 L58.1549852,32.6842 L62.6543185,32.6842 Z M67.552837,39.6718296 L64.6930593,39.6718296 L63.1265407,34.7506444 L57.6815037,34.7506444 L56.1892815,39.6718296 L53.4050593,39.6718296 L58.7997259,22.9136074 L62.1317259,22.9136074 L67.552837,39.6718296 Z" id="Fill-8" fill="#FFFFFF"></path>
                    <path d="M78.691363,33.5794074 C78.691363,32.4032593 78.4269185,31.4336296 77.8955111,30.6692593 C77.3149926,29.8759259 76.5355111,29.4767407 75.5583259,29.4767407 C74.8959556,29.4767407 74.2940296,29.6983704 73.7563259,30.1365926 C73.217363,30.5760741 72.8647704,31.1515556 72.6998074,31.8655556 C72.6166963,32.1967407 72.5751407,32.4687407 72.5751407,32.6828148 L72.5751407,34.6988889 C72.5751407,35.5765926 72.8446222,36.3182963 73.3835852,36.924 C73.9225481,37.5297037 74.6226963,37.8319259 75.4840296,37.8319259 C76.4952148,37.8319259 77.2822519,37.4402963 77.8451407,36.6633333 C78.4092889,35.8838519 78.691363,34.8562963 78.691363,33.5794074 M81.4264741,33.4811852 C81.4264741,35.5375556 80.8711407,37.1607407 79.7604741,38.3532593 C78.7656593,39.4148148 77.5303259,39.944963 76.0557333,39.944963 C74.4640296,39.944963 73.3206222,39.3745185 72.6242519,38.2298519 L72.5738815,38.2298519 L72.5738815,44.5954074 L69.8891407,44.5954074 L69.8891407,31.5645926 C69.8891407,30.2738519 69.8551407,28.9478519 69.7896593,27.5878519 L72.1507704,27.5878519 L72.3006222,29.5044444 L72.3509926,29.5044444 C73.2463259,28.0600741 74.6050667,27.3397778 76.4284741,27.3397778 C77.8539556,27.3397778 79.0439556,27.9026667 79.9959556,29.0297037 C80.9504741,30.158 81.4264741,31.6414074 81.4264741,33.4811852" id="Fill-10" fill="#FFFFFF"></path>
                    <path d="M92.5899333,33.5794074 C92.5899333,32.4032593 92.3242296,31.4336296 91.7928222,30.6692593 C91.2123037,29.8759259 90.4353407,29.4767407 89.4568963,29.4767407 C88.7920074,29.4767407 88.1926,29.6983704 87.653637,30.1365926 C87.1146741,30.5760741 86.7633407,31.1515556 86.5983778,31.8655556 C86.5165259,32.1967407 86.4737111,32.4687407 86.4737111,32.6828148 L86.4737111,34.6988889 C86.4737111,35.5765926 86.7419333,36.3182963 87.279637,36.924 C87.8186,37.5297037 88.5187481,37.8319259 89.3826,37.8319259 C90.3937852,37.8319259 91.1808222,37.4402963 91.7437111,36.6633333 C92.3066,35.8838519 92.5899333,34.8562963 92.5899333,33.5794074 M95.3250444,33.4811852 C95.3250444,35.5375556 94.7684519,37.1607407 93.6577852,38.3532593 C92.6642296,39.4148148 91.4288963,39.944963 89.9530444,39.944963 C88.3626,39.944963 87.2179333,39.3745185 86.5240815,38.2298519 L86.4737111,38.2298519 L86.4737111,44.5954074 L83.7889704,44.5954074 L83.7889704,31.5645926 C83.7889704,30.2738519 83.7549704,28.9478519 83.6894889,27.5878519 L86.0506,27.5878519 L86.2004519,29.5044444 L86.2508222,29.5044444 C87.1448963,28.0600741 88.503637,27.3397778 90.3270444,27.3397778 C91.7512667,27.3397778 92.9412667,27.9026667 93.8957852,29.0297037 C94.8477852,30.158 95.3250444,31.6414074 95.3250444,33.4811852" id="Fill-12" fill="#FFFFFF"></path>
                    <path d="M110.864052,34.9715185 C110.864052,36.3982593 110.369163,37.558037 109.375607,38.4533704 C108.28383,39.4305556 106.763904,39.9204074 104.810793,39.9204074 C103.007533,39.9204074 101.561904,39.5715926 100.467607,38.8764815 L101.089681,36.6387778 C102.268348,37.3515185 103.561607,37.7091481 104.970719,37.7091481 C105.981904,37.7091481 106.768941,37.479963 107.334348,37.0228519 C107.898496,36.5682593 108.178052,35.955 108.178052,35.1931481 C108.178052,34.5118889 107.947607,33.9401852 107.481681,33.4755185 C107.019533,33.0095926 106.247607,32.5789259 105.170941,32.1797407 C102.235607,31.0854444 100.76983,29.4824074 100.76983,27.3744074 C100.76983,25.9967778 101.284867,24.8672222 102.312422,23.987 C103.337459,23.108037 104.705015,22.6672963 106.415089,22.6672963 C107.940052,22.6672963 109.206867,22.933 110.216793,23.4631481 L109.546867,25.653 C108.602422,25.137963 107.533311,24.8810741 106.338274,24.8810741 C105.39383,24.8810741 104.655904,25.114037 104.127015,25.5787037 C103.681237,25.9917407 103.457089,26.497963 103.457089,27.0961111 C103.457089,27.7572222 103.711459,28.3062593 104.226496,28.7369259 C104.673533,29.1348519 105.485756,29.5655185 106.664422,30.0301852 C108.107533,30.6107037 109.164052,31.2894444 109.845311,32.0664074 C110.524052,32.8433704 110.864052,33.813 110.864052,34.9715185" id="Fill-14" fill="#FFFFFF"></path>
                    <path d="M119.740319,29.6024148 L116.781059,29.6024148 L116.781059,35.4693037 C116.781059,36.9615259 117.302393,37.7070074 118.348837,37.7070074 C118.827356,37.7070074 119.226541,37.6654519 119.541356,37.5836 L119.614393,39.6210815 C119.085504,39.8187852 118.390393,39.9182667 117.526541,39.9182667 C116.466244,39.9182667 115.637652,39.5958963 115.040763,38.948637 C114.443874,38.3013778 114.14543,37.2171556 114.14543,35.6921926 L114.14543,29.5998963 L112.381207,29.5998963 L112.381207,27.5850815 L114.14543,27.5850815 L114.14543,25.372563 L116.781059,24.5767111 L116.781059,27.5850815 L119.740319,27.5850815 L119.740319,29.6024148 Z" id="Fill-16" fill="#FFFFFF"></path>
                    <path d="M130.306259,33.6163037 C130.306259,32.5018593 130.069519,31.5473407 129.587222,30.7502296 C129.023074,29.7843778 128.218407,29.3046 127.177,29.3046 C126.097815,29.3046 125.276778,29.7868963 124.715148,30.7502296 C124.231593,31.5473407 123.993593,32.5194889 123.993593,33.6679333 C123.993593,34.7823778 124.231593,35.7381556 124.715148,36.5327481 C125.295667,37.4973407 126.10537,37.979637 127.153074,37.979637 C128.178111,37.979637 128.981519,37.4872667 129.563296,36.5088222 C130.058185,35.6966 130.306259,34.7307481 130.306259,33.6163037 M133.093,33.5306741 C133.093,35.3868222 132.561593,36.9117852 131.501296,38.1043037 C130.388111,39.3320815 128.913519,39.9440815 127.073741,39.9440815 C125.299444,39.9440815 123.887815,39.3572667 122.835074,38.1811185 C121.782333,37.0049704 121.255963,35.5203037 121.255963,33.7308963 C121.255963,31.8583778 121.798704,30.3246 122.884185,29.1308222 C123.968407,27.9370444 125.431667,27.3414148 127.271444,27.3414148 C129.044481,27.3414148 130.471222,27.9294889 131.547889,29.105637 C132.579222,30.2490444 133.093,31.7223778 133.093,33.5306741" id="Fill-18" fill="#FFFFFF"></path>
                    <path d="M141.819163,29.9492148 C141.553459,29.9001037 141.270126,29.8749185 140.972941,29.8749185 C140.028496,29.8749185 139.298126,30.2312889 138.784348,30.9452889 C138.336052,31.5749185 138.113163,32.3707704 138.113163,33.3315852 L138.113163,39.6719556 L135.429681,39.6719556 L135.453607,31.3923259 C135.453607,30.0008444 135.420867,28.7315111 135.352867,27.589363 L137.69257,27.589363 L137.790793,29.901363 L137.86383,29.901363 C138.148422,29.1055111 138.5942,28.4658074 139.207459,27.9860296 C139.804348,27.555363 140.451607,27.3400296 141.147978,27.3400296 C141.396052,27.3400296 141.6202,27.3564 141.819163,27.3891407 L141.819163,29.9492148 Z" id="Fill-20" fill="#FFFFFF"></path>
                    <path d="M151.266,32.3619556 C151.28363,31.5648444 151.108593,30.8785481 150.744667,30.2980296 C150.28,29.5512889 149.566,29.1785481 148.605185,29.1785481 C147.726222,29.1785481 147.013481,29.5424741 146.466963,30.2728444 C146.021185,30.853363 145.755481,31.5497333 145.67363,32.359437 L151.266,32.359437 L151.266,32.3619556 Z M153.826074,33.0583259 C153.826074,33.539363 153.794593,33.9448444 153.727852,34.2760296 L145.67363,34.2760296 C145.705111,35.4698074 146.094222,36.3827704 146.840963,37.0124 C147.519704,37.5752889 148.398667,37.8561037 149.476593,37.8561037 C150.667852,37.8561037 151.75837,37.6672148 152.735556,37.2856593 L153.156148,39.149363 C152.012741,39.6467704 150.662815,39.8948444 149.103852,39.8948444 C147.231333,39.8948444 145.760519,39.3445481 144.688889,38.2426963 C143.622296,37.1408444 143.087111,35.6599556 143.087111,33.8050667 C143.087111,31.9829185 143.584519,30.4655111 144.580593,29.255363 C145.624519,27.963363 147.03363,27.317363 148.805407,27.317363 C150.548222,27.317363 151.866667,27.963363 152.760741,29.255363 C153.469704,30.2816593 153.826074,31.5497333 153.826074,33.0583259 L153.826074,33.0583259 Z" id="Fill-22" fill="#FFFFFF"></path>
                    <g id="Group-2" transform="translate(55.000000, 9.000000)">
                        <path d="M2.61748889,4.85971111 L5.12845185,4.85971111 L3.89437778,1.4508963 L3.85156296,1.4508963 L2.61748889,4.85971111 Z M0.475488889,7.81519259 L3.32519259,0.259637037 L4.42200741,0.259637037 L7.27045185,7.81519259 L6.19504444,7.81519259 L5.46719259,5.76763704 L2.29008148,5.76763704 L1.5508963,7.81519259 L0.475488889,7.81519259 Z" id="Fill-24" fill="#FFFFFF"></path>
                        <path d="M2.61748889,4.85971111 L5.12845185,4.85971111 L3.89437778,1.4508963 L3.85156296,1.4508963 L2.61748889,4.85971111 Z M0.475488889,7.81519259 L3.32519259,0.259637037 L4.42200741,0.259637037 L7.27045185,7.81519259 L6.19504444,7.81519259 L5.46719259,5.76763704 L2.29008148,5.76763704 L1.5508963,7.81519259 L0.475488889,7.81519259 Z" id="Stroke-26" stroke="#FFFFFF" stroke-width="0.2"></path>
                        <polygon id="Fill-28" fill="#FFFFFF" points="8.3689037 7.81481481 8.3689037 0.259259259 13.8353481 0.259259259 13.8353481 7.81481481 12.8632 7.81481481 12.8632 1.18733333 9.33979259 1.18733333 9.33979259 7.81481481"></polygon>
                        <polygon id="Stroke-30" stroke="#FFFFFF" stroke-width="0.2" points="8.3689037 7.81481481 8.3689037 0.259259259 13.8353481 0.259259259 13.8353481 7.81481481 12.8632 7.81481481 12.8632 1.18733333 9.33979259 1.18733333 9.33979259 7.81481481"></polygon>
                        <path d="M16.9206593,6.20573333 C17.4797704,6.7724 18.1635481,7.05447407 18.9732519,7.05447407 C19.7816963,7.05447407 20.4667333,6.7724 21.0258444,6.20573333 C21.5849556,5.63906667 21.8657704,4.91625185 21.8657704,4.03728889 C21.8657704,3.15832593 21.5849556,2.43425185 21.0258444,1.86884444 C20.4667333,1.30217778 19.7816963,1.01884444 18.9732519,1.01884444 C18.1635481,1.01884444 17.4797704,1.30217778 16.9206593,1.86884444 C16.3628074,2.43425185 16.0819926,3.15832593 16.0819926,4.03728889 C16.0819926,4.91625185 16.3628074,5.63906667 16.9206593,6.20573333 M21.7436222,6.83788148 C21.0006593,7.60225185 20.0776222,7.98380741 18.9732519,7.98380741 C17.8688815,7.98380741 16.9458444,7.60225185 16.2041407,6.83788148 C15.4611778,6.07477037 15.0909556,5.14165926 15.0909556,4.03728889 C15.0909556,2.93291852 15.4611778,1.99854815 16.2041407,1.23543704 C16.9458444,0.472325926 17.8688815,0.0907703704 18.9732519,0.0907703704 C20.0713259,0.0907703704 20.9918444,0.473585185 21.7385852,1.24047407 C22.4840667,2.00736296 22.8568074,2.93921481 22.8568074,4.03728889 C22.8568074,5.14165926 22.4853259,6.07477037 21.7436222,6.83788148" id="Fill-32" fill="#FFFFFF"></path>
                        <path d="M16.9206593,6.20573333 C17.4797704,6.7724 18.1635481,7.05447407 18.9732519,7.05447407 C19.7816963,7.05447407 20.4667333,6.7724 21.0258444,6.20573333 C21.5849556,5.63906667 21.8657704,4.91625185 21.8657704,4.03728889 C21.8657704,3.15832593 21.5849556,2.43425185 21.0258444,1.86884444 C20.4667333,1.30217778 19.7816963,1.01884444 18.9732519,1.01884444 C18.1635481,1.01884444 17.4797704,1.30217778 16.9206593,1.86884444 C16.3628074,2.43425185 16.0819926,3.15832593 16.0819926,4.03728889 C16.0819926,4.91625185 16.3628074,5.63906667 16.9206593,6.20573333 Z M21.7436222,6.83788148 C21.0006593,7.60225185 20.0776222,7.98380741 18.9732519,7.98380741 C17.8688815,7.98380741 16.9458444,7.60225185 16.2041407,6.83788148 C15.4611778,6.07477037 15.0909556,5.14165926 15.0909556,4.03728889 C15.0909556,2.93291852 15.4611778,1.99854815 16.2041407,1.23543704 C16.9458444,0.472325926 17.8688815,0.0907703704 18.9732519,0.0907703704 C20.0713259,0.0907703704 20.9918444,0.473585185 21.7385852,1.24047407 C22.4840667,2.00736296 22.8568074,2.93921481 22.8568074,4.03728889 C22.8568074,5.14165926 22.4853259,6.07477037 21.7436222,6.83788148 Z" id="Stroke-34" stroke="#FFFFFF" stroke-width="0.2"></path>
                        <polygon id="Fill-36" fill="#FFFFFF" points="29.7272 0.259259259 29.7272 0.300814815 26.3712741 4.12140741 29.8959407 7.77325926 29.8959407 7.81481481 28.5460148 7.81481481 25.2329037 4.27 25.1888296 4.27 25.1888296 7.81481481 24.2192 7.81481481 24.2192 0.259259259 25.1888296 0.259259259 25.1888296 4.01562963 25.2329037 4.01562963 28.4603852 0.259259259"></polygon>
                        <polygon id="Stroke-38" stroke="#FFFFFF" stroke-width="0.2" points="29.7272 0.259259259 29.7272 0.300814815 26.3712741 4.12140741 29.8959407 7.77325926 29.8959407 7.81481481 28.5460148 7.81481481 25.2329037 4.27 25.1888296 4.27 25.1888296 7.81481481 24.2192 7.81481481 24.2192 0.259259259 25.1888296 0.259259259 25.1888296 4.01562963 25.2329037 4.01562963 28.4603852 0.259259259"></polygon>
                        <polygon id="Fill-40" fill="#FFFFFF" points="33.4410074 7.81481481 32.4701185 7.81481481 32.4701185 1.18733333 30.3596 1.18733333 30.3596 0.259259259 35.5502667 0.259259259 35.5502667 1.18733333 33.4410074 1.18733333"></polygon>
                        <polygon id="Stroke-42" stroke="#FFFFFF" stroke-width="0.2" points="33.4410074 7.81481481 32.4701185 7.81481481 32.4701185 1.18733333 30.3596 1.18733333 30.3596 0.259259259 35.5502667 0.259259259 35.5502667 1.18733333 33.4410074 1.18733333"></polygon>
                        <polygon id="Fill-44" fill="#FFFFFF" points="36.7755259 7.81481481 36.7755259 0.259259259 37.7464148 0.259259259 37.7464148 3.49807407 41.5241926 3.49807407 41.5241926 0.259259259 42.4950815 0.259259259 42.4950815 7.81481481 41.5241926 7.81481481 41.5241926 4.406 37.7464148 4.406 37.7464148 7.81481481"></polygon>
                        <polygon id="Stroke-46" stroke="#FFFFFF" stroke-width="0.2" points="36.7755259 7.81481481 36.7755259 0.259259259 37.7464148 0.259259259 37.7464148 3.49807407 41.5241926 3.49807407 41.5241926 0.259259259 42.4950815 0.259259259 42.4950815 7.81481481 41.5241926 7.81481481 41.5241926 4.406 37.7464148 4.406 37.7464148 7.81481481"></polygon>
                        <polygon id="Fill-48" fill="#FFFFFF" points="48.4678741 1.18771111 44.9545407 1.18771111 47.3181704 3.95178519 44.9545407 6.88585926 48.4678741 6.88585926 48.4678741 7.81519259 43.8879481 7.81519259 43.8879481 6.80148889 46.1470593 3.95178519 43.8879481 1.27208148 43.8879481 0.259637037 48.4678741 0.259637037"></polygon>
                        <polygon id="Stroke-50" stroke="#FFFFFF" stroke-width="0.2" points="48.4678741 1.18771111 44.9545407 1.18771111 47.3181704 3.95178519 44.9545407 6.88585926 48.4678741 6.88585926 48.4678741 7.81519259 43.8879481 7.81519259 43.8879481 6.80148889 46.1470593 3.95178519 43.8879481 1.27208148 43.8879481 0.259637037 48.4678741 0.259637037"></polygon>
                        <polygon id="Fill-52" fill="#FFFFFF" points="52.3096222 7.81481481 51.3387333 7.81481481 51.3387333 1.18733333 49.2282148 1.18733333 49.2282148 0.259259259 54.4201407 0.259259259 54.4201407 1.18733333 52.3096222 1.18733333"></polygon>
                        <polygon id="Stroke-54" stroke="#FFFFFF" stroke-width="0.2" points="52.3096222 7.81481481 51.3387333 7.81481481 51.3387333 1.18733333 49.2282148 1.18733333 49.2282148 0.259259259 54.4201407 0.259259259 54.4201407 1.18733333 52.3096222 1.18733333"></polygon>
                        <polygon id="Fill-56" fill="#FFFFFF" points="60.0558296 1.18771111 56.6155333 1.18771111 56.6155333 3.58282222 59.7170889 3.58282222 59.7170889 4.49074815 56.6155333 4.49074815 56.6155333 6.88585926 60.0558296 6.88585926 60.0558296 7.81519259 55.6446444 7.81519259 55.6446444 0.259637037 60.0558296 0.259637037"></polygon>
                        <polygon id="Stroke-58" stroke="#FFFFFF" stroke-width="0.2" points="60.0558296 1.18771111 56.6155333 1.18771111 56.6155333 3.58282222 59.7170889 3.58282222 59.7170889 4.49074815 56.6155333 4.49074815 56.6155333 6.88585926 60.0558296 6.88585926 60.0558296 7.81519259 55.6446444 7.81519259 55.6446444 0.259637037 60.0558296 0.259637037"></polygon>
                        <polygon id="Fill-60" fill="#FFFFFF" points="66.2610815 7.81481481 65.2901926 7.81481481 65.2901926 1.18733333 63.1796741 1.18733333 63.1796741 0.259259259 68.3716 0.259259259 68.3716 1.18733333 66.2610815 1.18733333"></polygon>
                        <polygon id="Stroke-62" stroke="#FFFFFF" stroke-width="0.2" points="66.2610815 7.81481481 65.2901926 7.81481481 65.2901926 1.18733333 63.1796741 1.18733333 63.1796741 0.259259259 68.3716 0.259259259 68.3716 1.18733333 66.2610815 1.18733333"></polygon>
                        <path d="M70.7410222,6.20573333 C71.3001333,6.7724 71.9839111,7.05447407 72.7936148,7.05447407 C73.6020593,7.05447407 74.2870963,6.7724 74.8462074,6.20573333 C75.4053185,5.63906667 75.6861333,4.91625185 75.6861333,4.03728889 C75.6861333,3.15832593 75.4053185,2.43425185 74.8462074,1.86884444 C74.2870963,1.30217778 73.6020593,1.01884444 72.7936148,1.01884444 C71.9839111,1.01884444 71.3001333,1.30217778 70.7410222,1.86884444 C70.1831704,2.43425185 69.9023556,3.15832593 69.9023556,4.03728889 C69.9023556,4.91625185 70.1831704,5.63906667 70.7410222,6.20573333 M75.5639852,6.83788148 C74.8210222,7.60225185 73.8979852,7.98380741 72.7936148,7.98380741 C71.6892444,7.98380741 70.7662074,7.60225185 70.0245037,6.83788148 C69.2815407,6.07477037 68.9113185,5.14165926 68.9113185,4.03728889 C68.9113185,2.93291852 69.2815407,1.99854815 70.0245037,1.23543704 C70.7662074,0.472325926 71.6892444,0.0907703704 72.7936148,0.0907703704 C73.8916889,0.0907703704 74.8122074,0.473585185 75.5589481,1.24047407 C76.3044296,2.00736296 76.6771704,2.93921481 76.6771704,4.03728889 C76.6771704,5.14165926 76.3056889,6.07477037 75.5639852,6.83788148" id="Fill-64" fill="#FFFFFF"></path>
                        <path d="M70.7410222,6.20573333 C71.3001333,6.7724 71.9839111,7.05447407 72.7936148,7.05447407 C73.6020593,7.05447407 74.2870963,6.7724 74.8462074,6.20573333 C75.4053185,5.63906667 75.6861333,4.91625185 75.6861333,4.03728889 C75.6861333,3.15832593 75.4053185,2.43425185 74.8462074,1.86884444 C74.2870963,1.30217778 73.6020593,1.01884444 72.7936148,1.01884444 C71.9839111,1.01884444 71.3001333,1.30217778 70.7410222,1.86884444 C70.1831704,2.43425185 69.9023556,3.15832593 69.9023556,4.03728889 C69.9023556,4.91625185 70.1831704,5.63906667 70.7410222,6.20573333 Z M75.5639852,6.83788148 C74.8210222,7.60225185 73.8979852,7.98380741 72.7936148,7.98380741 C71.6892444,7.98380741 70.7662074,7.60225185 70.0245037,6.83788148 C69.2815407,6.07477037 68.9113185,5.14165926 68.9113185,4.03728889 C68.9113185,2.93291852 69.2815407,1.99854815 70.0245037,1.23543704 C70.7662074,0.472325926 71.6892444,0.0907703704 72.7936148,0.0907703704 C73.8916889,0.0907703704 74.8122074,0.473585185 75.5589481,1.24047407 C76.3044296,2.00736296 76.6771704,2.93921481 76.6771704,4.03728889 C76.6771704,5.14165926 76.3056889,6.07477037 75.5639852,6.83788148 Z" id="Stroke-66" stroke="#FFFFFF" stroke-width="0.2"></path>
                        <polygon id="Fill-68" fill="#FFFFFF" points="84.8129926 1.18771111 81.2996593 1.18771111 83.6632889 3.95178519 81.2996593 6.88585926 84.8129926 6.88585926 84.8129926 7.81519259 80.2330667 7.81519259 80.2330667 6.80148889 82.4921778 3.95178519 80.2330667 1.27208148 80.2330667 0.259637037 84.8129926 0.259637037"></polygon>
                        <polygon id="Stroke-70" stroke="#FFFFFF" stroke-width="0.2" points="84.8129926 1.18771111 81.2996593 1.18771111 83.6632889 3.95178519 81.2996593 6.88585926 84.8129926 6.88585926 84.8129926 7.81519259 80.2330667 7.81519259 80.2330667 6.80148889 82.4921778 3.95178519 80.2330667 1.27208148 80.2330667 0.259637037 84.8129926 0.259637037"></polygon>
                        <polygon id="Fill-72" fill="#FFFFFF" points="88.656 7.81481481 87.6851111 7.81481481 87.6851111 1.18733333 85.5745926 1.18733333 85.5745926 0.259259259 90.7665185 0.259259259 90.7665185 1.18733333 88.656 1.18733333"></polygon>
                        <polygon id="Stroke-74" stroke="#FFFFFF" stroke-width="0.2" points="88.656 7.81481481 87.6851111 7.81481481 87.6851111 1.18733333 85.5745926 1.18733333 85.5745926 0.259259259 90.7665185 0.259259259 90.7665185 1.18733333 88.656 1.18733333"></polygon>
                        <path d="M93.1334222,6.20573333 C93.6925333,6.7724 94.3763111,7.05447407 95.1860148,7.05447407 C95.9944593,7.05447407 96.6794963,6.7724 97.2386074,6.20573333 C97.7977185,5.63906667 98.0785333,4.91625185 98.0785333,4.03728889 C98.0785333,3.15832593 97.7977185,2.43425185 97.2386074,1.86884444 C96.6794963,1.30217778 95.9944593,1.01884444 95.1860148,1.01884444 C94.3763111,1.01884444 93.6925333,1.30217778 93.1334222,1.86884444 C92.5755704,2.43425185 92.2947556,3.15832593 92.2947556,4.03728889 C92.2947556,4.91625185 92.5755704,5.63906667 93.1334222,6.20573333 M97.9563852,6.83788148 C97.2134222,7.60225185 96.2903852,7.98380741 95.1860148,7.98380741 C94.0816444,7.98380741 93.1586074,7.60225185 92.4169037,6.83788148 C91.6739407,6.07477037 91.3037185,5.14165926 91.3037185,4.03728889 C91.3037185,2.93291852 91.6739407,1.99854815 92.4169037,1.23543704 C93.1586074,0.472325926 94.0816444,0.0907703704 95.1860148,0.0907703704 C96.2840889,0.0907703704 97.2046074,0.473585185 97.9513481,1.24047407 C98.6968296,2.00736296 99.0695704,2.93921481 99.0695704,4.03728889 C99.0695704,5.14165926 98.6980889,6.07477037 97.9563852,6.83788148" id="Fill-76" fill="#FFFFFF"></path>
                        <path d="M93.1334222,6.20573333 C93.6925333,6.7724 94.3763111,7.05447407 95.1860148,7.05447407 C95.9944593,7.05447407 96.6794963,6.7724 97.2386074,6.20573333 C97.7977185,5.63906667 98.0785333,4.91625185 98.0785333,4.03728889 C98.0785333,3.15832593 97.7977185,2.43425185 97.2386074,1.86884444 C96.6794963,1.30217778 95.9944593,1.01884444 95.1860148,1.01884444 C94.3763111,1.01884444 93.6925333,1.30217778 93.1334222,1.86884444 C92.5755704,2.43425185 92.2947556,3.15832593 92.2947556,4.03728889 C92.2947556,4.91625185 92.5755704,5.63906667 93.1334222,6.20573333 Z M97.9563852,6.83788148 C97.2134222,7.60225185 96.2903852,7.98380741 95.1860148,7.98380741 C94.0816444,7.98380741 93.1586074,7.60225185 92.4169037,6.83788148 C91.6739407,6.07477037 91.3037185,5.14165926 91.3037185,4.03728889 C91.3037185,2.93291852 91.6739407,1.99854815 92.4169037,1.23543704 C93.1586074,0.472325926 94.0816444,0.0907703704 95.1860148,0.0907703704 C96.2840889,0.0907703704 97.2046074,0.473585185 97.9513481,1.24047407 C98.6968296,2.00736296 99.0695704,2.93921481 99.0695704,4.03728889 C99.0695704,5.14165926 98.6980889,6.07477037 97.9563852,6.83788148 Z" id="Stroke-78" stroke="#FFFFFF" stroke-width="0.2"></path>
                    </g>
                </g>
            </g>
        </g>
    </g>
</svg>