<svg xmlns="http://www.w3.org/2000/svg" 
  xmlns:xlink="http://www.w3.org/1999/xlink" width="30" height="30" viewBox="0 0 300 300">
  <defs>
    <clipPath id="clip-Facebook">
      <rect width="300" height="300"/>
    </clipPath>
  </defs>
  <g id="Facebook" clip-path="url(#clip-Facebook)">
    <path id="Subtraction_1" data-name="Subtraction 1" d="M-78.169,73.422V-35.83h36.955l7.035-45.845h-43.99v-29.751a31.556,31.556,0,0,1,1.268-9.161,21.59,21.59,0,0,1,4.267-7.926c4.408-5.1,11.241-7.681,20.312-7.681h20v-39.033a247.98,247.98,0,0,0-35.5-3.1,71.545,71.545,0,0,0-24.644,4.052,51.44,51.44,0,0,0-18.9,11.9,52.488,52.488,0,0,0-12.1,19.349,77.147,77.147,0,0,0-4.266,26.412v34.942H-168V-35.83h40.27V72.442a148.709,148.709,0,0,1-48.464-18.209A150.853,150.853,0,0,1-197,39.418a151.342,151.342,0,0,1-17.962-18.063A150.821,150.821,0,0,1-229.663.463a149.747,149.747,0,0,1-11.019-23.3A149.481,149.481,0,0,1-250-75a151.11,151.11,0,0,1,3.047-30.23,149.245,149.245,0,0,1,8.74-28.157,150.012,150.012,0,0,1,13.83-25.48,151.075,151.075,0,0,1,18.316-22.2,151.077,151.077,0,0,1,22.2-18.316,150.014,150.014,0,0,1,25.48-13.83,149.246,149.246,0,0,1,28.157-8.74A151.107,151.107,0,0,1-100-225a151.1,151.1,0,0,1,30.23,3.047,149.244,149.244,0,0,1,28.157,8.74,150.015,150.015,0,0,1,25.48,13.83,151.075,151.075,0,0,1,22.2,18.316,151.075,151.075,0,0,1,18.316,22.2,150.013,150.013,0,0,1,13.83,25.48,149.243,149.243,0,0,1,8.74,28.157A151.106,151.106,0,0,1,50-75a149.379,149.379,0,0,1-9.832,53.524A149.8,149.8,0,0,1,28.561,2.32,150.9,150.9,0,0,1,13.1,23.531,151.319,151.319,0,0,1-5.758,41.7a150.693,150.693,0,0,1-21.8,14.676A149.609,149.609,0,0,1-51.848,67.1a149.483,149.483,0,0,1-26.319,6.32Z" transform="translate(250 225)" fill="#fff"/>
  </g>
</svg>
