<?xml version="1.0" encoding="UTF-8"?>
<svg width="170px" height="51px" viewBox="0 0 170 51" version="1.1" xmlns="http://www.w3.org/2000/svg" xmlns:xlink="http://www.w3.org/1999/xlink">
    <!-- Generator: Sketch 46.2 (44496) - http://www.bohemiancoding.com/sketch -->
    <title>android</title>
    <desc>Created with Sketch.</desc>
    <defs>
        <polygon id="path-1" points="0 50.3703704 170 50.3703704 170 0 0 0"></polygon>
        <path d="M0.549037037,0.677481481 C0.856296296,0.351333333 1.27059259,0.176296296 1.75414815,0.176296296 C2.17977778,0.176296296 2.65955556,0.312296296 3.16577778,0.600666667 L21.561037,11.0525185 L16.2431852,16.3716296 L0.549037037,0.677481481 Z" id="path-3"></path>
    </defs>
    <g id="Website" stroke="none" stroke-width="1" fill="none" fill-rule="evenodd">
        <g id="home" transform="translate(-165.000000, -2110.000000)">
            <g id="app" transform="translate(0.000000, 1605.000000)">
                <g id="android" transform="translate(165.000000, 505.000000)">
                    <g id="Group-5">
                        <path d="M163.703704,0 L6.2962963,0 C2.83333333,0 0,2.83333333 0,6.2962963 L0,44.0740741 C0,47.537037 2.83333333,50.3703704 6.2962963,50.3703704 L163.703704,50.3703704 C167.166667,50.3703704 170,47.537037 170,44.0740741 L170,6.2962963 C170,2.83333333 167.166667,0 163.703704,0 Z M163.703704,1.00740741 C166.620148,1.00740741 168.992593,3.37985185 168.992593,6.2962963 L168.992593,44.0740741 C168.992593,46.9905185 166.620148,49.362963 163.703704,49.362963 L6.2962963,49.362963 C3.37985185,49.362963 1.00740741,46.9905185 1.00740741,44.0740741 L1.00740741,6.2962963 C1.00740741,3.37985185 3.37985185,1.00740741 6.2962963,1.00740741 L163.703704,1.00740741 Z" id="Fill-1" fill="#FFFFFF"></path>
                        <mask id="mask-2" fill="white">
                            <use xlink:href="#path-1"></use>
                        </mask>
                        <g id="Clip-4"></g>
                        <path d="M134.661407,37.7777778 L137.009926,37.7777778 L137.009926,22.0357778 L134.661407,22.0357778 L134.661407,37.7777778 Z M155.824519,27.7062222 L153.130963,34.5314074 L153.05037,34.5314074 L150.254815,27.7062222 L147.724963,27.7062222 L151.917037,37.2451111 L149.525704,42.5516296 L151.977481,42.5516296 L158.437481,27.7062222 L155.824519,27.7062222 Z M142.497778,35.9896296 C141.72963,35.9896296 140.655481,35.6042963 140.655481,34.6535556 C140.655481,33.4383704 141.992815,32.9724444 143.147556,32.9724444 C144.178889,32.9724444 144.666222,33.1940741 145.293333,33.4988148 C145.110741,34.957037 143.855259,35.9896296 142.497778,35.9896296 L142.497778,35.9896296 Z M142.78237,27.3624444 C141.081111,27.3624444 139.319407,28.1117037 138.590296,29.7726667 L140.67563,30.6428148 C141.120148,29.7726667 141.952519,29.4880741 142.822667,29.4880741 C144.037852,29.4880741 145.273185,30.2171852 145.293333,31.512963 L145.293333,31.6754074 C144.867704,31.4323704 143.956,31.0684444 142.842815,31.0684444 C140.593778,31.0684444 138.305704,32.3037778 138.305704,34.612 C138.305704,36.7187407 140.149259,38.0762222 142.215704,38.0762222 C143.793556,38.0762222 144.666222,37.3672593 145.211481,36.5361481 L145.293333,36.5361481 L145.293333,37.7513333 L147.562519,37.7513333 L147.562519,31.716963 C147.562519,28.9214074 145.474667,27.3624444 142.78237,27.3624444 L142.78237,27.3624444 Z M128.260593,29.6228148 L124.918519,29.6228148 L124.918519,24.2268889 L128.260593,24.2268889 C130.017259,24.2268889 131.014593,25.6813333 131.014593,26.9242222 C131.014593,28.1444444 130.017259,29.6228148 128.260593,29.6228148 L128.260593,29.6228148 Z M128.200148,22.0357778 L122.57,22.0357778 L122.57,37.7777778 L124.918519,37.7777778 L124.918519,31.8139259 L128.200148,31.8139259 C130.804296,31.8139259 133.36437,29.9288148 133.36437,26.9242222 C133.36437,23.9208889 130.804296,22.0357778 128.200148,22.0357778 L128.200148,22.0357778 Z M97.4981481,35.9934074 C95.874963,35.9934074 94.5162222,34.6334074 94.5162222,32.7671852 C94.5162222,30.8795556 95.874963,29.5006667 97.4981481,29.5006667 C99.0999259,29.5006667 100.357926,30.8795556 100.357926,32.7671852 C100.357926,34.6334074 99.0999259,35.9934074 97.4981481,35.9934074 L97.4981481,35.9934074 Z M100.195481,28.5877037 L100.114889,28.5877037 C99.5872593,27.9593333 98.5722963,27.3901481 97.2954074,27.3901481 C94.616963,27.3901481 92.1626667,29.744963 92.1626667,32.7671852 C92.1626667,35.7692593 94.616963,38.1026667 97.2954074,38.1026667 C98.5722963,38.1026667 99.5872593,37.5347407 100.114889,36.8862222 L100.195481,36.8862222 L100.195481,37.6556296 C100.195481,39.7057037 99.0999259,40.8 97.3357037,40.8 C95.8951111,40.8 95.0022963,39.7661481 94.6371111,38.8934815 L92.5882963,39.746 C93.1763704,41.1651852 94.7378519,42.9105185 97.3357037,42.9105185 C100.094741,42.9105185 102.428148,41.2873333 102.428148,37.332 L102.428148,27.715037 L100.195481,27.715037 L100.195481,28.5877037 Z M104.051333,37.7777778 L106.40363,37.7777778 L106.40363,22.0357778 L104.051333,22.0357778 L104.051333,37.7777778 Z M109.872889,32.5845926 C109.812444,30.5143704 111.475926,29.4603704 112.673481,29.4603704 C113.606593,29.4603704 114.397407,29.9275556 114.661852,30.5962222 L109.872889,32.5845926 Z M117.176593,30.798963 C116.729556,29.6026667 115.370815,27.3901481 112.59163,27.3901481 C109.832593,27.3901481 107.539481,29.5623704 107.539481,32.747037 C107.539481,35.7491111 109.812444,38.1026667 112.854815,38.1026667 C115.309111,38.1026667 116.729556,36.6016296 117.318889,35.728963 L115.492963,34.5112593 C114.883481,35.4040741 114.05237,35.9934074 112.854815,35.9934074 C111.658519,35.9934074 110.806,35.4443704 110.259481,34.368963 L117.41963,31.4071852 L117.176593,30.798963 Z M60.1220741,29.0347407 L60.1220741,31.3064444 L65.5595556,31.3064444 C65.3971111,32.5845926 64.9702222,33.5177037 64.3217037,34.1662222 C63.5296296,34.9582963 62.2917778,35.830963 60.1220741,35.830963 C56.7737037,35.830963 54.156963,33.1323704 54.156963,29.7852593 C54.156963,26.4381481 56.7737037,23.7395556 60.1220741,23.7395556 C61.9278519,23.7395556 63.2462963,24.4497778 64.2197037,25.3627407 L65.8227407,23.7597037 C64.4627407,22.4614074 62.6582222,21.4665926 60.1220741,21.4665926 C55.5371111,21.4665926 51.6825185,25.2002963 51.6825185,29.7852593 C51.6825185,34.368963 55.5371111,38.1026667 60.1220741,38.1026667 C62.5965185,38.1026667 64.4627407,37.2904444 65.9234815,35.7692593 C67.4245185,34.2682222 67.8917037,32.158963 67.8917037,30.4539259 C67.8917037,29.9275556 67.8514074,29.4402222 67.7695556,29.0347407 L60.1220741,29.0347407 Z M74.0721481,35.9934074 C72.4502222,35.9934074 71.0499259,34.6535556 71.0499259,32.747037 C71.0499259,30.8191111 72.4502222,29.5006667 74.0721481,29.5006667 C75.6953333,29.5006667 77.0956296,30.8191111 77.0956296,32.747037 C77.0956296,34.6535556 75.6953333,35.9934074 74.0721481,35.9934074 L74.0721481,35.9934074 Z M74.0721481,27.3901481 C71.1103704,27.3901481 68.6963704,29.642963 68.6963704,32.747037 C68.6963704,35.830963 71.1103704,38.1026667 74.0721481,38.1026667 C77.0351852,38.1026667 79.4491852,35.830963 79.4491852,32.747037 C79.4491852,29.642963 77.0351852,27.3901481 74.0721481,27.3901481 L74.0721481,27.3901481 Z M85.8008889,35.9934074 C84.1777037,35.9934074 82.7774074,34.6535556 82.7774074,32.747037 C82.7774074,30.8191111 84.1777037,29.5006667 85.8008889,29.5006667 C87.4240741,29.5006667 88.8231111,30.8191111 88.8231111,32.747037 C88.8231111,34.6535556 87.4240741,35.9934074 85.8008889,35.9934074 L85.8008889,35.9934074 Z M85.8008889,27.3901481 C82.8391111,27.3901481 80.4251111,29.642963 80.4251111,32.747037 C80.4251111,35.830963 82.8391111,38.1026667 85.8008889,38.1026667 C88.7626667,38.1026667 91.1766667,35.830963 91.1766667,32.747037 C91.1766667,29.642963 88.7626667,27.3901481 85.8008889,27.3901481 L85.8008889,27.3901481 Z" id="Fill-3" fill="#FFFFFF" mask="url(#mask-2)"></path>
                    </g>
                    <path d="M13.1416296,9.4922963 C12.7751852,9.88014815 12.5585926,10.4820741 12.5585926,11.2615556 L12.5585926,11.2615556 L12.5585926,39.1113333 C12.5585926,39.8920741 12.7751852,40.4927407 13.1416296,40.8805926 L13.1416296,40.8805926 L13.2335556,40.9712593 L28.8357778,25.3702963 L28.8357778,25.1864444 L28.8357778,25.0025926 L13.2335556,9.40037037 L13.1416296,9.4922963 Z" id="Fill-6" fill="#FFFFFF"></path>
                    <path d="M28.8357778,25.0025926 L28.8357778,25.1864444 L28.8357778,25.3702963 L34.0352593,30.5722963 L34.1536296,30.5068148 L40.3151852,27.0060741 C42.0756296,26.004963 42.0756296,24.3679259 40.3151852,23.3680741 L40.3151852,23.3680741 L34.1536296,19.8673333 L34.0365185,19.8005926 L28.8357778,25.0025926 Z" id="Fill-8" fill="#FFFFFF"></path>
                    <g id="Group-12" transform="translate(12.592593, 25.185185)" fill="#FFFFFF">
                        <path d="M0.549037037,15.6954074 C1.1282963,16.3099259 2.08659259,16.3854815 3.16577778,15.7722222 L3.16577778,15.7722222 L21.561037,5.32037037 L16.2431852,0.00125925926 L0.549037037,15.6954074 Z" id="Fill-10"></path>
                    </g>
                    <g id="Group-15" transform="translate(12.592593, 8.814815)">
                        <mask id="mask-4" fill="white">
                            <use xlink:href="#path-3"></use>
                        </mask>
                        <g id="Clip-14"></g>
                        <path d="M0.549037037,0.677481481 L16.2431852,16.3716296 L21.561037,11.0525185 L3.16577778,0.600666667 C2.65955556,0.312296296 2.17977778,0.176296296 1.75414815,0.176296296 L1.75414815,0.176296296 C1.27059259,0.176296296 0.856296296,0.351333333 0.549037037,0.677481481" id="Fill-13" fill="#FFFFFF" mask="url(#mask-4)"></path>
                    </g>
                    <g id="Group-80" transform="translate(12.333333, 8.555556)">
                        <path d="M21.7029333,21.832637 L3.42478519,32.2190074 C2.40226667,32.7982667 1.48804444,32.7604889 0.90122963,32.2316 L0.808044444,32.3260444 L0.89997037,32.4167111 L0.90122963,32.4154519 C1.48804444,32.9443407 2.40226667,32.9833778 3.42478519,32.4028593 L21.8200444,21.9497481 L21.7029333,21.832637 Z" id="Fill-16" fill="#000000"></path>
                        <path d="M0.807666667,32.1416889 C0.441222222,31.753837 0.22462963,31.1519111 0.22462963,30.3724296 L0.22462963,30.5562815 C0.22462963,31.335763 0.441222222,31.9376889 0.807666667,32.3255407 L0.900851852,32.2323556 L0.807666667,32.1416889 Z" id="Fill-18" fill="#000000"></path>
                        <path d="M27.9813481,18.2651556 L21.7026815,21.832637 L21.8197926,21.9497481 L27.9813481,18.4490074 C28.8615704,17.9490815 29.3010519,17.2904889 29.3010519,16.6318963 C29.2267556,17.2275259 28.7797185,17.8118222 27.9813481,18.2651556" id="Fill-20" fill="#000000"></path>
                        <path d="M3.42465926,1.04377778 L27.9814741,14.9963704 C28.7798444,15.4497037 29.2268815,16.034 29.3011778,16.6308889 C29.302437,15.9722963 28.8616963,15.3124444 27.9814741,14.8125185 L3.42465926,0.859925926 C1.66421481,-0.139925926 0.224881481,0.691185185 0.224881481,2.706 L0.224881481,2.88985185 C0.224881481,0.875037037 1.66421481,0.0439259259 3.42465926,1.04377778" id="Fill-22" fill="#FFFFFF"></path>
                        <g id="Group-2" transform="translate(39.000000, 0.000000)">
                            <path d="M2.61748889,4.85971111 L5.12845185,4.85971111 L3.89437778,1.4508963 L3.85156296,1.4508963 L2.61748889,4.85971111 Z M0.475488889,7.81519259 L3.32519259,0.259637037 L4.42200741,0.259637037 L7.27045185,7.81519259 L6.19504444,7.81519259 L5.46719259,5.76763704 L2.29008148,5.76763704 L1.5508963,7.81519259 L0.475488889,7.81519259 Z" id="Fill-24" fill="#FFFFFF"></path>
                            <path d="M2.61748889,4.85971111 L5.12845185,4.85971111 L3.89437778,1.4508963 L3.85156296,1.4508963 L2.61748889,4.85971111 Z M0.475488889,7.81519259 L3.32519259,0.259637037 L4.42200741,0.259637037 L7.27045185,7.81519259 L6.19504444,7.81519259 L5.46719259,5.76763704 L2.29008148,5.76763704 L1.5508963,7.81519259 L0.475488889,7.81519259 Z" id="Stroke-26" stroke="#FFFFFF" stroke-width="0.2"></path>
                            <polygon id="Fill-28" fill="#FFFFFF" points="8.3689037 7.81481481 8.3689037 0.259259259 13.8353481 0.259259259 13.8353481 7.81481481 12.8632 7.81481481 12.8632 1.18733333 9.33979259 1.18733333 9.33979259 7.81481481"></polygon>
                            <polygon id="Stroke-30" stroke="#FFFFFF" stroke-width="0.2" points="8.3689037 7.81481481 8.3689037 0.259259259 13.8353481 0.259259259 13.8353481 7.81481481 12.8632 7.81481481 12.8632 1.18733333 9.33979259 1.18733333 9.33979259 7.81481481"></polygon>
                            <path d="M16.9206593,6.20573333 C17.4797704,6.7724 18.1635481,7.05447407 18.9732519,7.05447407 C19.7816963,7.05447407 20.4667333,6.7724 21.0258444,6.20573333 C21.5849556,5.63906667 21.8657704,4.91625185 21.8657704,4.03728889 C21.8657704,3.15832593 21.5849556,2.43425185 21.0258444,1.86884444 C20.4667333,1.30217778 19.7816963,1.01884444 18.9732519,1.01884444 C18.1635481,1.01884444 17.4797704,1.30217778 16.9206593,1.86884444 C16.3628074,2.43425185 16.0819926,3.15832593 16.0819926,4.03728889 C16.0819926,4.91625185 16.3628074,5.63906667 16.9206593,6.20573333 M21.7436222,6.83788148 C21.0006593,7.60225185 20.0776222,7.98380741 18.9732519,7.98380741 C17.8688815,7.98380741 16.9458444,7.60225185 16.2041407,6.83788148 C15.4611778,6.07477037 15.0909556,5.14165926 15.0909556,4.03728889 C15.0909556,2.93291852 15.4611778,1.99854815 16.2041407,1.23543704 C16.9458444,0.472325926 17.8688815,0.0907703704 18.9732519,0.0907703704 C20.0713259,0.0907703704 20.9918444,0.473585185 21.7385852,1.24047407 C22.4840667,2.00736296 22.8568074,2.93921481 22.8568074,4.03728889 C22.8568074,5.14165926 22.4853259,6.07477037 21.7436222,6.83788148" id="Fill-32" fill="#FFFFFF"></path>
                            <path d="M16.9206593,6.20573333 C17.4797704,6.7724 18.1635481,7.05447407 18.9732519,7.05447407 C19.7816963,7.05447407 20.4667333,6.7724 21.0258444,6.20573333 C21.5849556,5.63906667 21.8657704,4.91625185 21.8657704,4.03728889 C21.8657704,3.15832593 21.5849556,2.43425185 21.0258444,1.86884444 C20.4667333,1.30217778 19.7816963,1.01884444 18.9732519,1.01884444 C18.1635481,1.01884444 17.4797704,1.30217778 16.9206593,1.86884444 C16.3628074,2.43425185 16.0819926,3.15832593 16.0819926,4.03728889 C16.0819926,4.91625185 16.3628074,5.63906667 16.9206593,6.20573333 Z M21.7436222,6.83788148 C21.0006593,7.60225185 20.0776222,7.98380741 18.9732519,7.98380741 C17.8688815,7.98380741 16.9458444,7.60225185 16.2041407,6.83788148 C15.4611778,6.07477037 15.0909556,5.14165926 15.0909556,4.03728889 C15.0909556,2.93291852 15.4611778,1.99854815 16.2041407,1.23543704 C16.9458444,0.472325926 17.8688815,0.0907703704 18.9732519,0.0907703704 C20.0713259,0.0907703704 20.9918444,0.473585185 21.7385852,1.24047407 C22.4840667,2.00736296 22.8568074,2.93921481 22.8568074,4.03728889 C22.8568074,5.14165926 22.4853259,6.07477037 21.7436222,6.83788148 Z" id="Stroke-34" stroke="#FFFFFF" stroke-width="0.2"></path>
                            <polygon id="Fill-36" fill="#FFFFFF" points="29.7272 0.259259259 29.7272 0.300814815 26.3712741 4.12140741 29.8959407 7.77325926 29.8959407 7.81481481 28.5460148 7.81481481 25.2329037 4.27 25.1888296 4.27 25.1888296 7.81481481 24.2192 7.81481481 24.2192 0.259259259 25.1888296 0.259259259 25.1888296 4.01562963 25.2329037 4.01562963 28.4603852 0.259259259"></polygon>
                            <polygon id="Stroke-38" stroke="#FFFFFF" stroke-width="0.2" points="29.7272 0.259259259 29.7272 0.300814815 26.3712741 4.12140741 29.8959407 7.77325926 29.8959407 7.81481481 28.5460148 7.81481481 25.2329037 4.27 25.1888296 4.27 25.1888296 7.81481481 24.2192 7.81481481 24.2192 0.259259259 25.1888296 0.259259259 25.1888296 4.01562963 25.2329037 4.01562963 28.4603852 0.259259259"></polygon>
                            <polygon id="Fill-40" fill="#FFFFFF" points="33.4410074 7.81481481 32.4701185 7.81481481 32.4701185 1.18733333 30.3596 1.18733333 30.3596 0.259259259 35.5502667 0.259259259 35.5502667 1.18733333 33.4410074 1.18733333"></polygon>
                            <polygon id="Stroke-42" stroke="#FFFFFF" stroke-width="0.2" points="33.4410074 7.81481481 32.4701185 7.81481481 32.4701185 1.18733333 30.3596 1.18733333 30.3596 0.259259259 35.5502667 0.259259259 35.5502667 1.18733333 33.4410074 1.18733333"></polygon>
                            <polygon id="Fill-44" fill="#FFFFFF" points="36.7755259 7.81481481 36.7755259 0.259259259 37.7464148 0.259259259 37.7464148 3.49807407 41.5241926 3.49807407 41.5241926 0.259259259 42.4950815 0.259259259 42.4950815 7.81481481 41.5241926 7.81481481 41.5241926 4.406 37.7464148 4.406 37.7464148 7.81481481"></polygon>
                            <polygon id="Stroke-46" stroke="#FFFFFF" stroke-width="0.2" points="36.7755259 7.81481481 36.7755259 0.259259259 37.7464148 0.259259259 37.7464148 3.49807407 41.5241926 3.49807407 41.5241926 0.259259259 42.4950815 0.259259259 42.4950815 7.81481481 41.5241926 7.81481481 41.5241926 4.406 37.7464148 4.406 37.7464148 7.81481481"></polygon>
                            <polygon id="Fill-48" fill="#FFFFFF" points="48.4678741 1.18771111 44.9545407 1.18771111 47.3181704 3.95178519 44.9545407 6.88585926 48.4678741 6.88585926 48.4678741 7.81519259 43.8879481 7.81519259 43.8879481 6.80148889 46.1470593 3.95178519 43.8879481 1.27208148 43.8879481 0.259637037 48.4678741 0.259637037"></polygon>
                            <polygon id="Stroke-50" stroke="#FFFFFF" stroke-width="0.2" points="48.4678741 1.18771111 44.9545407 1.18771111 47.3181704 3.95178519 44.9545407 6.88585926 48.4678741 6.88585926 48.4678741 7.81519259 43.8879481 7.81519259 43.8879481 6.80148889 46.1470593 3.95178519 43.8879481 1.27208148 43.8879481 0.259637037 48.4678741 0.259637037"></polygon>
                            <polygon id="Fill-52" fill="#FFFFFF" points="52.3096222 7.81481481 51.3387333 7.81481481 51.3387333 1.18733333 49.2282148 1.18733333 49.2282148 0.259259259 54.4201407 0.259259259 54.4201407 1.18733333 52.3096222 1.18733333"></polygon>
                            <polygon id="Stroke-54" stroke="#FFFFFF" stroke-width="0.2" points="52.3096222 7.81481481 51.3387333 7.81481481 51.3387333 1.18733333 49.2282148 1.18733333 49.2282148 0.259259259 54.4201407 0.259259259 54.4201407 1.18733333 52.3096222 1.18733333"></polygon>
                            <polygon id="Fill-56" fill="#FFFFFF" points="60.0558296 1.18771111 56.6155333 1.18771111 56.6155333 3.58282222 59.7170889 3.58282222 59.7170889 4.49074815 56.6155333 4.49074815 56.6155333 6.88585926 60.0558296 6.88585926 60.0558296 7.81519259 55.6446444 7.81519259 55.6446444 0.259637037 60.0558296 0.259637037"></polygon>
                            <polygon id="Stroke-58" stroke="#FFFFFF" stroke-width="0.2" points="60.0558296 1.18771111 56.6155333 1.18771111 56.6155333 3.58282222 59.7170889 3.58282222 59.7170889 4.49074815 56.6155333 4.49074815 56.6155333 6.88585926 60.0558296 6.88585926 60.0558296 7.81519259 55.6446444 7.81519259 55.6446444 0.259637037 60.0558296 0.259637037"></polygon>
                            <polygon id="Fill-60" fill="#FFFFFF" points="66.2610815 7.81481481 65.2901926 7.81481481 65.2901926 1.18733333 63.1796741 1.18733333 63.1796741 0.259259259 68.3716 0.259259259 68.3716 1.18733333 66.2610815 1.18733333"></polygon>
                            <polygon id="Stroke-62" stroke="#FFFFFF" stroke-width="0.2" points="66.2610815 7.81481481 65.2901926 7.81481481 65.2901926 1.18733333 63.1796741 1.18733333 63.1796741 0.259259259 68.3716 0.259259259 68.3716 1.18733333 66.2610815 1.18733333"></polygon>
                            <path d="M70.7410222,6.20573333 C71.3001333,6.7724 71.9839111,7.05447407 72.7936148,7.05447407 C73.6020593,7.05447407 74.2870963,6.7724 74.8462074,6.20573333 C75.4053185,5.63906667 75.6861333,4.91625185 75.6861333,4.03728889 C75.6861333,3.15832593 75.4053185,2.43425185 74.8462074,1.86884444 C74.2870963,1.30217778 73.6020593,1.01884444 72.7936148,1.01884444 C71.9839111,1.01884444 71.3001333,1.30217778 70.7410222,1.86884444 C70.1831704,2.43425185 69.9023556,3.15832593 69.9023556,4.03728889 C69.9023556,4.91625185 70.1831704,5.63906667 70.7410222,6.20573333 M75.5639852,6.83788148 C74.8210222,7.60225185 73.8979852,7.98380741 72.7936148,7.98380741 C71.6892444,7.98380741 70.7662074,7.60225185 70.0245037,6.83788148 C69.2815407,6.07477037 68.9113185,5.14165926 68.9113185,4.03728889 C68.9113185,2.93291852 69.2815407,1.99854815 70.0245037,1.23543704 C70.7662074,0.472325926 71.6892444,0.0907703704 72.7936148,0.0907703704 C73.8916889,0.0907703704 74.8122074,0.473585185 75.5589481,1.24047407 C76.3044296,2.00736296 76.6771704,2.93921481 76.6771704,4.03728889 C76.6771704,5.14165926 76.3056889,6.07477037 75.5639852,6.83788148" id="Fill-64" fill="#FFFFFF"></path>
                            <path d="M70.7410222,6.20573333 C71.3001333,6.7724 71.9839111,7.05447407 72.7936148,7.05447407 C73.6020593,7.05447407 74.2870963,6.7724 74.8462074,6.20573333 C75.4053185,5.63906667 75.6861333,4.91625185 75.6861333,4.03728889 C75.6861333,3.15832593 75.4053185,2.43425185 74.8462074,1.86884444 C74.2870963,1.30217778 73.6020593,1.01884444 72.7936148,1.01884444 C71.9839111,1.01884444 71.3001333,1.30217778 70.7410222,1.86884444 C70.1831704,2.43425185 69.9023556,3.15832593 69.9023556,4.03728889 C69.9023556,4.91625185 70.1831704,5.63906667 70.7410222,6.20573333 Z M75.5639852,6.83788148 C74.8210222,7.60225185 73.8979852,7.98380741 72.7936148,7.98380741 C71.6892444,7.98380741 70.7662074,7.60225185 70.0245037,6.83788148 C69.2815407,6.07477037 68.9113185,5.14165926 68.9113185,4.03728889 C68.9113185,2.93291852 69.2815407,1.99854815 70.0245037,1.23543704 C70.7662074,0.472325926 71.6892444,0.0907703704 72.7936148,0.0907703704 C73.8916889,0.0907703704 74.8122074,0.473585185 75.5589481,1.24047407 C76.3044296,2.00736296 76.6771704,2.93921481 76.6771704,4.03728889 C76.6771704,5.14165926 76.3056889,6.07477037 75.5639852,6.83788148 Z" id="Stroke-66" stroke="#FFFFFF" stroke-width="0.2"></path>
                            <polygon id="Fill-68" fill="#FFFFFF" points="84.8129926 1.18771111 81.2996593 1.18771111 83.6632889 3.95178519 81.2996593 6.88585926 84.8129926 6.88585926 84.8129926 7.81519259 80.2330667 7.81519259 80.2330667 6.80148889 82.4921778 3.95178519 80.2330667 1.27208148 80.2330667 0.259637037 84.8129926 0.259637037"></polygon>
                            <polygon id="Stroke-70" stroke="#FFFFFF" stroke-width="0.2" points="84.8129926 1.18771111 81.2996593 1.18771111 83.6632889 3.95178519 81.2996593 6.88585926 84.8129926 6.88585926 84.8129926 7.81519259 80.2330667 7.81519259 80.2330667 6.80148889 82.4921778 3.95178519 80.2330667 1.27208148 80.2330667 0.259637037 84.8129926 0.259637037"></polygon>
                            <polygon id="Fill-72" fill="#FFFFFF" points="88.656 7.81481481 87.6851111 7.81481481 87.6851111 1.18733333 85.5745926 1.18733333 85.5745926 0.259259259 90.7665185 0.259259259 90.7665185 1.18733333 88.656 1.18733333"></polygon>
                            <polygon id="Stroke-74" stroke="#FFFFFF" stroke-width="0.2" points="88.656 7.81481481 87.6851111 7.81481481 87.6851111 1.18733333 85.5745926 1.18733333 85.5745926 0.259259259 90.7665185 0.259259259 90.7665185 1.18733333 88.656 1.18733333"></polygon>
                            <path d="M93.1334222,6.20573333 C93.6925333,6.7724 94.3763111,7.05447407 95.1860148,7.05447407 C95.9944593,7.05447407 96.6794963,6.7724 97.2386074,6.20573333 C97.7977185,5.63906667 98.0785333,4.91625185 98.0785333,4.03728889 C98.0785333,3.15832593 97.7977185,2.43425185 97.2386074,1.86884444 C96.6794963,1.30217778 95.9944593,1.01884444 95.1860148,1.01884444 C94.3763111,1.01884444 93.6925333,1.30217778 93.1334222,1.86884444 C92.5755704,2.43425185 92.2947556,3.15832593 92.2947556,4.03728889 C92.2947556,4.91625185 92.5755704,5.63906667 93.1334222,6.20573333 M97.9563852,6.83788148 C97.2134222,7.60225185 96.2903852,7.98380741 95.1860148,7.98380741 C94.0816444,7.98380741 93.1586074,7.60225185 92.4169037,6.83788148 C91.6739407,6.07477037 91.3037185,5.14165926 91.3037185,4.03728889 C91.3037185,2.93291852 91.6739407,1.99854815 92.4169037,1.23543704 C93.1586074,0.472325926 94.0816444,0.0907703704 95.1860148,0.0907703704 C96.2840889,0.0907703704 97.2046074,0.473585185 97.9513481,1.24047407 C98.6968296,2.00736296 99.0695704,2.93921481 99.0695704,4.03728889 C99.0695704,5.14165926 98.6980889,6.07477037 97.9563852,6.83788148" id="Fill-76" fill="#FFFFFF"></path>
                            <path d="M93.1334222,6.20573333 C93.6925333,6.7724 94.3763111,7.05447407 95.1860148,7.05447407 C95.9944593,7.05447407 96.6794963,6.7724 97.2386074,6.20573333 C97.7977185,5.63906667 98.0785333,4.91625185 98.0785333,4.03728889 C98.0785333,3.15832593 97.7977185,2.43425185 97.2386074,1.86884444 C96.6794963,1.30217778 95.9944593,1.01884444 95.1860148,1.01884444 C94.3763111,1.01884444 93.6925333,1.30217778 93.1334222,1.86884444 C92.5755704,2.43425185 92.2947556,3.15832593 92.2947556,4.03728889 C92.2947556,4.91625185 92.5755704,5.63906667 93.1334222,6.20573333 Z M97.9563852,6.83788148 C97.2134222,7.60225185 96.2903852,7.98380741 95.1860148,7.98380741 C94.0816444,7.98380741 93.1586074,7.60225185 92.4169037,6.83788148 C91.6739407,6.07477037 91.3037185,5.14165926 91.3037185,4.03728889 C91.3037185,2.93291852 91.6739407,1.99854815 92.4169037,1.23543704 C93.1586074,0.472325926 94.0816444,0.0907703704 95.1860148,0.0907703704 C96.2840889,0.0907703704 97.2046074,0.473585185 97.9513481,1.24047407 C98.6968296,2.00736296 99.0695704,2.93921481 99.0695704,4.03728889 C99.0695704,5.14165926 98.6980889,6.07477037 97.9563852,6.83788148 Z" id="Stroke-78" stroke="#FFFFFF" stroke-width="0.2"></path>
                        </g>
                    </g>
                </g>
            </g>
        </g>
    </g>
</svg>