<svg xmlns="http://www.w3.org/2000/svg" xmlns:xlink="http://www.w3.org/1999/xlink" width="73" height="89" viewBox="0 0 73 89">
    <defs>
        <path id="a" d="M0 89h73V0H0z"/>
    </defs>
    <g fill="none" fill-rule="evenodd">
        <path fill="#00ECFF" d="M54.5 47.812c-1.374 0-2.5-1.143-2.5-2.548v-7.265h5v7.264c0 1.406-1.126 2.549-2.5 2.549m0 4.11c3.641 0 6.5-2.987 6.5-6.658v-8.846C61 35.288 59.891 34 58.757 34H49.66C48.528 34 48 35.287 48 36.42v8.845c0 3.67 2.859 6.657 6.5 6.657"/>
        <mask id="b" fill="#fff">
            <use xlink:href="#a"/>
        </mask>
        <path fill="#00ECFF" d="M51.65 10.198l-8.333 13.205-3.927-5.15L49.921 6.008l1.764 3.638a2.1 2.1 0 0 0-.035.552zM30.857 28.865c.302-.14.568-.354.77-.617l5.107-6.7 5.106 6.7a2.058 2.058 0 0 0 3.373-.15l9.91-15.397L69 17.777V85H4V17.777l14.25-5.214 9.906 15.532c.176.282.47.518.75.68.285.168.635.265 1.058.282.303 0 .631-.068.893-.192zm5.876-14.197L27.546 4h18.34l-9.153 10.668zm-6.584 8.735L21.636 9.926l1.901-3.919 10.521 12.27-3.909 5.126zm42.347-8.228c-.242-.347-.647-.608-1.04-.753L55.792 8.623l-3.52-7.222a2.103 2.103 0 0 0-.653-.768c-.27-.195-.592-.44-.867-.477C50.62.13 50.483 0 50.346 0H23.081c-.237 0-.468.156-.648.222-.535.168-.984.613-1.23 1.12l-3.405 7.045-16.182 6.02c-.394.145-.877.421-1.112.76-.237.34-.504.764-.504 1.181v70.363c0 .54.355 1.184.738 1.57.384.383 1.05.72 1.59.72h68.343c.541 0 1.206-.337 1.59-.72.383-.384.74-1.029.74-1.57V16.348c0-.417-.269-.835-.505-1.173z" mask="url(#b)"/>
        <path fill="#00ECFF" d="M36.734 82.546c2.036 0 3.693-1.67 3.693-3.724 0-2.047-1.657-3.713-3.693-3.713a3.713 3.713 0 0 0-3.704 3.713c0 2.054 1.662 3.724 3.704 3.724M36.734 70.636c2.036 0 3.693-1.67 3.693-3.724 0-2.047-1.657-3.713-3.693-3.713a3.713 3.713 0 0 0-3.704 3.713c0 2.054 1.662 3.724 3.704 3.724M36.734 58.726c2.036 0 3.693-1.666 3.693-3.713 0-2.054-1.657-3.724-3.693-3.724-2.042 0-3.704 1.67-3.704 3.724a3.713 3.713 0 0 0 3.704 3.713M36.734 46.815c2.036 0 3.693-1.666 3.693-3.713 0-2.048-1.657-3.714-3.693-3.714a3.713 3.713 0 0 0 0 7.427M36.734 34.916c2.036 0 3.693-1.67 3.693-3.723 0-2.048-1.657-3.714-3.693-3.714a3.713 3.713 0 0 0-3.704 3.714c0 2.053 1.662 3.723 3.704 3.723"/>
    </g>
</svg>
