<svg xmlns="http://www.w3.org/2000/svg" xmlns:xlink="http://www.w3.org/1999/xlink" width="121" height="68" viewBox="0 0 121 68">
    <defs>
        <path id="a" d="M59 .202v40.574H.96V.202z"/>
        <path id="c" d="M0 41V.427h58.232v40.571z"/>
    </defs>
    <g fill="none" fill-rule="evenodd">
        <path fill="#00ECFF" d="M71.926 41.063a2.397 2.397 0 0 1-2.394-2.396c0-5.312-3.912-10.177-9.513-11.824-7.046-1.805-14.46 1.985-16.403 8.448-.375 1.272-1.722 1.998-2.981 1.6a2.385 2.385 0 0 1-1.602-2.983C41.7 25.018 51.7 19.791 61.283 22.22c7.708 2.272 13.03 9.015 13.03 16.444a2.39 2.39 0 0 1-2.387 2.4"/>
        <path fill="#00ECFF" d="M20.792 34.483c-.144 0-.3-.014-.45-.04a2.398 2.398 0 0 1-1.896-2.812c2.004-10.287 7.873-19.17 16.539-25.006C43.582.837 53.89-1.254 64.06.73c12.174 2.476 22.516 10.718 27.672 22.052a2.386 2.386 0 0 1-1.183 3.166 2.39 2.39 0 0 1-3.172-1.183C82.849 14.82 73.786 7.595 63.122 5.421c-8.857-1.737-17.919.095-25.47 5.171-7.599 5.123-12.75 12.913-14.506 21.95a2.401 2.401 0 0 1-2.354 1.941"/>
        <path fill="#00ECFF" d="M80.639 31.194a2.396 2.396 0 0 1-2.181-1.41c-2.435-5.397-6.991-9.815-12.49-12.119-12.222-5.055-26.482.376-31.757 12.112-.54 1.211-1.948 1.758-3.166 1.211a2.392 2.392 0 0 1-1.204-3.159c6.313-14.084 23.337-20.615 37.967-14.576 6.614 2.777 12.086 8.084 15.013 14.568a2.4 2.4 0 0 1-1.197 3.167c-.314.137-.65.206-.985.206"/>
        <g transform="translate(62 21.17)">
            <mask id="b" fill="#fff">
                <use xlink:href="#a"/>
            </mask>
            <path fill="#00ECFF" d="M13.605 20.474c-4.41 0-7.866 3.448-7.866 7.854 0 4.007 3.193 7.378 7.27 7.672l34.261-.006a7.257 7.257 0 0 0 6.955-7.278c0-4.123-3.364-7.468-7.495-7.468-.186 0-.404.04-.622.068-1.342.198-2.572.076-3.256-.875a2.43 2.43 0 0 1-.328-2.162c.075-.205.075-.575.075-.971 0-6.785-5.533-12.305-12.332-12.305-6.697 0-12.134 5.52-12.134 12.305v.97c0 .74-.335 1.43-.916 1.889a2.386 2.386 0 0 1-2.058.43c-.473-.123-.802-.123-1.554-.123m33.707 20.302h-34.48C6.103 40.303.96 34.83.96 28.32c0-6.91 5.568-12.537 12.462-12.64C14.229 7.008 21.477.202 30.267.202c9.159 0 16.66 7.222 17.091 16.258 6.478.328 11.643 5.698 11.643 12.243 0 6.525-5.097 11.826-11.601 12.064-.027.009-.063.009-.088.009" mask="url(#b)"/>
        </g>
        <g transform="translate(0 26.17)">
            <mask id="d" fill="#fff">
                <use xlink:href="#c"/>
            </mask>
            <path fill="#00ECFF" d="M12.852 20.686c-4.521 0-8.071 3.448-8.071 7.858 0 4.001 3.276 7.375 7.469 7.675l34.062-.008c3.938-.163 7.14-3.42 7.14-7.276 0-4.124-3.358-7.47-7.482-7.47-.28 0-.52.043-.746.082-1.861.282-3.578-.58-3.578-2.277 0-.383.05-.773.11-1.183.034-.226.082-.465.082-.745 0-6.682-5.533-12.113-12.324-12.113-6.8 0-12.333 5.43-12.333 12.113.095.26.192.663.192 1.155 0 .74-.335 1.43-.917 1.889a2.369 2.369 0 0 1-2.058.43c-.466-.122-.786-.13-1.546-.13M46.366 41H12.08C5.232 40.514 0 35.05 0 28.544c0-6.962 5.438-12.44 12.456-12.639C13.186 7.248 20.56.428 29.506.428c9.22 0 16.75 7.236 17.1 16.258 6.463.326 11.626 5.695 11.626 12.241 0 6.519-5.177 11.82-11.79 12.068-.021.005-.05.005-.076.005" mask="url(#d)"/>
        </g>
    </g>
</svg>
