<svg xmlns="http://www.w3.org/2000/svg" width="91" height="77" viewBox="0 0 91 77">
    <g fill="#00ECFF" fill-rule="evenodd">
        <path d="M32 72h14V60H32v12zM4 55.025V49h49v-4H4V4.846C4 4.283 4.508 4 5.07 4h66.433c.562 0 1.497.283 1.497.846V25h4V4.846C77 2.062 74.287 0 71.503 0H5.07C2.286 0 0 2.062 0 4.846v50.179C0 57.81 2.286 60 5.07 60H28v12h-8v5h27.729C48.84 77 50 75.614 50 74.504V60h4v-4H5.07C4.508 56 4 55.588 4 55.025z"/>
        <path d="M34 54h9v-3h-9zM11 10h4V7H8.952C7.979 7 7 7.636 7 8.608V19h4v-9zM7 27h4v-5H7zM87 38H60v-7.223c0-.335.107-.777.442-.777h25.899c.336 0 .659.442.659.777V38zM60 62h27V42H60v20zm0 4h27v6.262c0 .335-.323.738-.659.738H60.442c-.335 0-.442-.403-.442-.738V66zm31-35.363A4.637 4.637 0 0 0 86.362 26H60.638A4.637 4.637 0 0 0 56 30.637v41.726A4.637 4.637 0 0 0 60.638 77h25.724A4.637 4.637 0 0 0 91 72.363V30.637z"/>
        <path d="M70 71h7v-3h-7z"/>
    </g>
</svg>
