<svg xmlns="http://www.w3.org/2000/svg" 
  xmlns:xlink="http://www.w3.org/1999/xlink" width="30" height="30" viewBox="0 0 300 300">
  <defs>
    <clipPath id="clip-Instagram">
      <rect width="300" height="300"/>
    </clipPath>
  </defs>
  <g id="Instagram" clip-path="url(#clip-Instagram)">
    <path id="Subtraction_2" data-name="Subtraction 2" d="M-470,75a151.11,151.11,0,0,1-30.23-3.047,149.248,149.248,0,0,1-28.157-8.74,150.016,150.016,0,0,1-25.48-13.83,151.078,151.078,0,0,1-22.2-18.316,151.072,151.072,0,0,1-18.316-22.2,150.018,150.018,0,0,1-13.83-25.48,149.235,149.235,0,0,1-8.74-28.156A151.1,151.1,0,0,1-620-75a151.107,151.107,0,0,1,3.048-30.23,149.238,149.238,0,0,1,8.74-28.157,150.015,150.015,0,0,1,13.83-25.48,151.074,151.074,0,0,1,18.316-22.2,151.079,151.079,0,0,1,22.2-18.316,150.012,150.012,0,0,1,25.48-13.83,149.244,149.244,0,0,1,28.157-8.74A151.11,151.11,0,0,1-470-225a151.106,151.106,0,0,1,30.23,3.047,149.241,149.241,0,0,1,28.156,8.74,150.012,150.012,0,0,1,25.48,13.83,151.081,151.081,0,0,1,22.2,18.316,151.081,151.081,0,0,1,18.316,22.2,150.021,150.021,0,0,1,13.83,25.48,149.248,149.248,0,0,1,8.74,28.157A151.11,151.11,0,0,1-320-75a151.106,151.106,0,0,1-3.047,30.23,149.246,149.246,0,0,1-8.74,28.156,150.02,150.02,0,0,1-13.83,25.48,151.082,151.082,0,0,1-18.316,22.2,151.083,151.083,0,0,1-22.2,18.316,150.018,150.018,0,0,1-25.48,13.83,149.245,149.245,0,0,1-28.156,8.74A151.106,151.106,0,0,1-470,75Zm-.48-240c-15.94,0-30.09.241-36.927.629a87.452,87.452,0,0,0-10.416,1.068,58.013,58.013,0,0,0-9.76,2.472,45.419,45.419,0,0,0-17.33,10.879,44.994,44.994,0,0,0-10.9,17.3,70.345,70.345,0,0,0-3.56,20.206c-.842,14.839-.842,59.013,0,73.853A87.586,87.586,0,0,0-558.3-28.155a57.8,57.8,0,0,0,2.476,9.768,45.091,45.091,0,0,0,10.914,17.3A45.5,45.5,0,0,0-527.6,9.8a70.021,70.021,0,0,0,20.191,3.575c6.837.388,20.987.629,36.927.629s30.089-.241,36.926-.629A87.587,87.587,0,0,0-423.115,12.3a57.8,57.8,0,0,0,9.768-2.477,45.093,45.093,0,0,0,17.3-10.915,45.244,45.244,0,0,0,10.884-17.3,70.129,70.129,0,0,0,3.575-20.205c.842-14.832.842-58.982,0-73.813a87.6,87.6,0,0,0-1.069-10.438,57.805,57.805,0,0,0-2.477-9.768,45.091,45.091,0,0,0-10.914-17.3,45.252,45.252,0,0,0-17.3-10.884,70.112,70.112,0,0,0-20.206-3.575C-440.39-164.759-454.54-165-470.48-165ZM-454.637-2.018h0c-3.362,0-6.594-.033-9.445-.062h-.013c-2.321-.023-4.514-.046-6.363-.046-1.819,0-3.968.021-6.243.042-2.789.027-5.948.057-9.226.057-8.453,0-15-.206-20.6-.648-7.436-.586-13.051-1.611-16.69-3.047a30.233,30.233,0,0,1-17.015-17.015c-4.008-10.106-3.787-31.938-3.641-46.384.024-2.327.046-4.526.046-6.379,0-1.824-.021-3.971-.042-6.244-.069-7.236-.156-16.241.272-24.825.506-10.142,1.606-17.238,3.365-21.695a30.235,30.235,0,0,1,17.015-17.015c3.621-1.436,9.182-2.462,16.528-3.05,5.56-.445,12.047-.652,20.412-.652,3.359,0,6.593.033,9.447.062h.013c2.321.023,4.513.046,6.363.046,1.819,0,3.969-.021,6.244-.042h.013c2.784-.027,5.94-.057,9.214-.057,8.452,0,15,.206,20.6.647,7.435.586,13.051,1.611,16.689,3.047a30.238,30.238,0,0,1,17.015,17.015c4.008,10.106,3.787,31.94,3.64,46.387v.013c-.023,2.321-.046,4.513-.046,6.363s.022,4.052.046,6.377c.146,14.461.368,36.315-3.64,46.387A30.237,30.237,0,0,1-417.7-5.721c-3.621,1.436-9.182,2.463-16.528,3.051C-439.784-2.226-446.27-2.018-454.637-2.018ZM-470.46-121.393a45.761,45.761,0,0,0-17.888,3.6,45.613,45.613,0,0,0-14.585,9.822,45.612,45.612,0,0,0-9.822,14.585,45.759,45.759,0,0,0-3.6,17.887,45.762,45.762,0,0,0,3.6,17.888,45.614,45.614,0,0,0,9.822,14.585A45.613,45.613,0,0,0-488.348-33.2a45.761,45.761,0,0,0,17.888,3.6,45.761,45.761,0,0,0,17.888-3.6,45.613,45.613,0,0,0,14.585-9.822,45.614,45.614,0,0,0,9.822-14.585,45.761,45.761,0,0,0,3.6-17.888,45.758,45.758,0,0,0-3.6-17.887,45.613,45.613,0,0,0-9.822-14.585,45.613,45.613,0,0,0-14.585-9.822A45.761,45.761,0,0,0-470.46-121.393Zm47.77-12.582a10.716,10.716,0,0,0-10.7,10.7,10.645,10.645,0,0,0,3.12,7.569,10.633,10.633,0,0,0,7.583,3.136,10.645,10.645,0,0,0,7.569-3.121,10.635,10.635,0,0,0,3.135-7.584A10.717,10.717,0,0,0-422.69-133.975Zm-47.77,88.312a29.535,29.535,0,0,1-11.588-2.348,29.842,29.842,0,0,1-9.487-6.4,29.822,29.822,0,0,1-6.409-9.485A29.537,29.537,0,0,1-500.3-75.5a29.871,29.871,0,0,1,29.837-29.837A29.871,29.871,0,0,1-440.623-75.5a29.537,29.537,0,0,1-2.354,11.6,29.821,29.821,0,0,1-6.409,9.485,29.842,29.842,0,0,1-9.487,6.4A29.535,29.535,0,0,1-470.46-45.663Z" transform="translate(620 225)" fill="#fff"/>
  </g>
</svg>
