<svg xmlns="http://www.w3.org/2000/svg" xmlns:xlink="http://www.w3.org/1999/xlink" width="1328" height="501" viewBox="0 0 1328 501">
  <defs>
    <clipPath id="clip-Sparklean_3">
      <rect width="1328" height="501"/>
    </clipPath>
  </defs>
  <g id="Sparklean_3" data-name="Sparklean – 3" clip-path="url(#clip-Sparklean_3)">
    <text id="ΚΑΘΑΡΑ_ΣΤΗΝ_ΠΟΡΤΑ_ΣΟΥ" data-name="ΚΑΘΑΡΑ, ΣΤΗΝ ΠΟΡΤΑ ΣΟΥ" transform="translate(529 312)" fill="#4cc8ed" font-size="30" font-family="Comfortaa-Regular, Comfortaa" letter-spacing="0.22em"><tspan x="0" y="0">ΚΑΘΑΡΑ, ΣΤΗΝ ΠΟΡΤΑ ΣΟΥ</tspan></text>
    <g id="Group_6" data-name="Group 6" transform="translate(-1191 -316)">
      <line id="Line_44" data-name="Line 44" y2="157.432" transform="translate(1675.393 472.129)" fill="none" stroke="#4cc8ed" stroke-miterlimit="10" stroke-width="1.26"/>
      <path id="Path_350" data-name="Path 350" d="M264.432,601.971a26.2,26.2,0,0,1-9.868-5.776,4.422,4.422,0,0,1-1.354-3.249,4.844,4.844,0,0,1,2.106-4.092,6.287,6.287,0,0,1,3.67-1.474,5.625,5.625,0,0,1,4,1.9A16.035,16.035,0,0,0,269,593.1a22.446,22.446,0,0,0,8.514,1.625,18.053,18.053,0,0,0,9.3-1.985,6.017,6.017,0,0,0,3.309-5.355,6.378,6.378,0,0,0-3.249-5.415,33.1,33.1,0,0,0-11.041-3.61q-20.127-3.881-20.157-16.577a12.936,12.936,0,0,1,3.008-8.725,18.441,18.441,0,0,1,7.973-5.355,30.894,30.894,0,0,1,10.5-1.775,32.008,32.008,0,0,1,12.214,2.2,20.757,20.757,0,0,1,8.544,6.017,5.2,5.2,0,0,1,1.384,3.339,4.241,4.241,0,0,1-1.8,3.279,4.935,4.935,0,0,1-3.009.812,7.16,7.16,0,0,1-4.934-1.985,15.794,15.794,0,0,0-5.565-3.4,22.385,22.385,0,0,0-7.13-.993,17.12,17.12,0,0,0-7.942,1.624,5.024,5.024,0,0,0-3.008,4.543,5.747,5.747,0,0,0,1.053,3.52,9.268,9.268,0,0,0,4,2.647,54.469,54.469,0,0,0,8.484,2.346,36.4,36.4,0,0,1,16.216,6.408,13.3,13.3,0,0,1,4.784,10.59,15.434,15.434,0,0,1-2.617,8.754,17.326,17.326,0,0,1-7.732,6.2,29.9,29.9,0,0,1-12.214,2.257A40.4,40.4,0,0,1,264.432,601.971Z" transform="translate(1470.348 -49.667)" fill="#4cc8ed"/>
      <path id="Path_351" data-name="Path 351" d="M318.345,549.742a27.56,27.56,0,0,1,10.439,10.5,29.513,29.513,0,0,1,3.791,14.862,31.2,31.2,0,0,1-3.52,14.832A26.624,26.624,0,0,1,319.4,600.4a25.783,25.783,0,0,1-13.688,3.761,26.175,26.175,0,0,1-11.342-2.5,25.72,25.72,0,0,1-9.025-7.04v28.34a5.476,5.476,0,0,1-9.206,3.881,5.266,5.266,0,0,1-1.5-3.881V575.1a29.243,29.243,0,0,1,3.821-14.862,28.49,28.49,0,0,1,10.379-10.5,28.853,28.853,0,0,1,14.651-3.821,29.331,29.331,0,0,1,14.862,3.821Zm-5.235,42.419a18.62,18.62,0,0,0,6.709-7.04,20.277,20.277,0,0,0,2.467-10.018,20.578,20.578,0,0,0-2.467-10.078,18.5,18.5,0,0,0-6.709-7.07,18.261,18.261,0,0,0-25.662,7.07,20.882,20.882,0,0,0-2.407,10.078,20.547,20.547,0,0,0,2.407,10.018,18.562,18.562,0,0,0,25.662,7.04Z" transform="translate(1513.368 -49.665)" fill="#4cc8ed"/>
      <path id="Path_352" data-name="Path 352" d="M343.185,549.743a28.34,28.34,0,0,1,10.409,10.5,29.242,29.242,0,0,1,3.821,14.862V598.51a5.415,5.415,0,0,1-9.176,3.821,5.114,5.114,0,0,1-1.534-3.821v-3.881a25.724,25.724,0,0,1-9.025,7.04,26.268,26.268,0,0,1-11.342,2.5,25.721,25.721,0,0,1-13.688-3.76,26.624,26.624,0,0,1-9.657-10.469,31.2,31.2,0,0,1-3.52-14.832,29.814,29.814,0,0,1,3.761-14.862,27.83,27.83,0,0,1,10.469-10.5,29.27,29.27,0,0,1,14.741-3.821A28.641,28.641,0,0,1,343.185,549.743Zm-5.114,42.419a18.047,18.047,0,0,0,6.649-7.04,20.549,20.549,0,0,0,2.407-10.018,20.879,20.879,0,0,0-2.407-10.078,18.052,18.052,0,0,0-6.648-7.07,18.381,18.381,0,0,0-25.722,7.069,20.577,20.577,0,0,0-2.467,10.078,20.275,20.275,0,0,0,2.467,10.018,18.412,18.412,0,0,0,6.709,7.04,18.953,18.953,0,0,0,19.013,0Z" transform="translate(1563.257 -49.665)" fill="#4cc8ed"/>
      <path id="Path_353" data-name="Path 353" d="M362.034,547.547a4.873,4.873,0,0,1,3.159,4.182,4.182,4.182,0,0,1,0,1.053,4.061,4.061,0,0,1-4.212,3.369,7.714,7.714,0,0,1-1.564-.21,42.125,42.125,0,0,0-6.829-.722,19.766,19.766,0,0,0-12.184,3.46A11.071,11.071,0,0,0,335.8,568V598.66a5.355,5.355,0,0,1-1.324,3.881,5.264,5.264,0,0,1-3.941,1.354,5.416,5.416,0,0,1-3.881-1.294,5.264,5.264,0,0,1-1.354-3.941V551.729a4.723,4.723,0,0,1,5.235-5.235,4.633,4.633,0,0,1,5.265,5.235v2.016a21.63,21.63,0,0,1,7.762-5.776,23.342,23.342,0,0,1,9.868-2.106A18.652,18.652,0,0,1,362.034,547.547Z" transform="translate(1615.076 -49.816)" fill="#4cc8ed"/>
      <path id="Path_354" data-name="Path 354" d="M387.958,615.458a4.874,4.874,0,0,1-1.9,3.881,5.263,5.263,0,0,1-3.339,1.263,4.573,4.573,0,0,1-3.791-1.9l-19.946-24.669-5.235,4.633v16.035a4.844,4.844,0,0,1-5.144,5.145,4.964,4.964,0,0,1-3.73-1.414,5.024,5.024,0,0,1-1.414-3.73V543.045a5.084,5.084,0,0,1,1.414-3.731,5.626,5.626,0,0,1,7.461,0,5.085,5.085,0,0,1,1.414,3.731v42.69l25.512-22.774a4.422,4.422,0,0,1,3.249-1.354,5.264,5.264,0,0,1,4.934,4.934,4.453,4.453,0,0,1-1.685,3.58l-19.314,17.208,20.367,24.97a4.573,4.573,0,0,1,1.143,3.159Z" transform="translate(1651.607 -65.772)" fill="#4cc8ed"/>
      <path id="Path_355" data-name="Path 355" d="M371.485,617.388a15.735,15.735,0,0,1-5.626-6.919,24.4,24.4,0,0,1-1.986-10.018V543.14a5.252,5.252,0,1,1,10.5,0v57.311a12.787,12.787,0,0,0,1.444,6.408,4.332,4.332,0,0,0,3.791,2.5h2.708a4.482,4.482,0,0,1,3.43,1.474,5.536,5.536,0,0,1,1.294,3.791,4.452,4.452,0,0,1-1.985,3.761,8.334,8.334,0,0,1-5.144,1.474H379.7A13.991,13.991,0,0,1,371.485,617.388Z" transform="translate(1692.599 -65.776)" fill="#4cc8ed"/>
      <path id="Path_356" data-name="Path 356" d="M427.362,577.535a4.633,4.633,0,0,1-3.46,1.324H384.04a18.382,18.382,0,0,0,6.648,11.853,21.361,21.361,0,0,0,20.036,3.37,20.037,20.037,0,0,0,5.626-2.828,5.415,5.415,0,0,1,3.46-1.173,4.964,4.964,0,0,1,5.054,4.633,3.761,3.761,0,0,1-1.685,3.008,29.39,29.39,0,0,1-8.875,4.633,32.071,32.071,0,0,1-25.542-1.955,26.656,26.656,0,0,1-10.65-10.319,29.421,29.421,0,0,1-3.851-15.042A31.2,31.2,0,0,1,377.873,560a26.355,26.355,0,0,1,10.078-10.379,28.7,28.7,0,0,1,14.651-3.73,26.384,26.384,0,0,1,13.959,3.58,23.555,23.555,0,0,1,9.025,9.958,32.822,32.822,0,0,1,3.159,14.681A4.3,4.3,0,0,1,427.362,577.535Zm-37.184-18.291a18.8,18.8,0,0,0-6.017,11.221h34.958a18.472,18.472,0,0,0-5.265-11.221,15.343,15.343,0,0,0-11.221-4.212,18.052,18.052,0,0,0-12.455,4.212Z" transform="translate(1713.468 -49.749)" fill="#4cc8ed"/>
      <path id="Path_357" data-name="Path 357" d="M440.185,549.742a28.488,28.488,0,0,1,10.379,10.5,29.273,29.273,0,0,1,3.851,14.862v23.406a5.356,5.356,0,1,1-10.71,0v-3.881a25.809,25.809,0,0,1-9.025,7.04,26.143,26.143,0,0,1-11.312,2.5,25.812,25.812,0,0,1-13.718-3.76,26.626,26.626,0,0,1-9.657-10.469,31.2,31.2,0,0,1-3.52-14.832,29.512,29.512,0,0,1,3.791-14.862,27.77,27.77,0,0,1,10.439-10.5,29.334,29.334,0,0,1,14.742-3.821A28.761,28.761,0,0,1,440.185,549.742Zm-5.144,42.419a18.353,18.353,0,0,0,6.679-7.04,22.179,22.179,0,0,0,0-20.1,18.2,18.2,0,0,0-6.679-7.07,18.713,18.713,0,0,0-18.983,0,18.354,18.354,0,0,0-6.739,7.07,21.06,21.06,0,0,0-2.467,10.078,20.609,20.609,0,0,0,2.467,10.018,18.5,18.5,0,0,0,6.739,7.04,18.892,18.892,0,0,0,18.983,0Z" transform="translate(1758.077 -49.665)" fill="#4cc8ed"/>
      <path id="Path_358" data-name="Path 358" d="M463.84,549.021a22.291,22.291,0,0,1,9.025,9.176,30.355,30.355,0,0,1,3.249,14.561v25.813a5.355,5.355,0,0,1-10.71,0V572.758a15.463,15.463,0,0,0-16.7-17.208,17.657,17.657,0,0,0-8,1.775,14.229,14.229,0,0,0-5.686,4.813,12.035,12.035,0,0,0-2.046,6.829v29.6a5.2,5.2,0,0,1-1.474,3.821,5.084,5.084,0,0,1-3.881,1.534,5.234,5.234,0,0,1-5.355-5.355V551.759a5.114,5.114,0,0,1,1.534-3.881,5.234,5.234,0,0,1,3.821-1.474,5.054,5.054,0,0,1,5.355,5.355V552.9a23.4,23.4,0,0,1,7.972-5.175,26.383,26.383,0,0,1,9.868-1.835A26.656,26.656,0,0,1,463.84,549.021Z" transform="translate(1809.873 -49.726)" fill="#4cc8ed"/>
      <path id="Path_359" data-name="Path 359" d="M353.8,574.826c0-6.288-2.828-6.408-4.242-7.491a19.851,19.851,0,0,0-3.008-1.685l-50.331,46.18a24.94,24.94,0,0,1-15.042,5.114h-106.2a25.387,25.387,0,0,1-7.641-1.173l-6.227,5.746h0a16.968,16.968,0,0,0-6.017,12.726c0,9.868,8.875,17.84,19.8,17.84H281.174a20.878,20.878,0,0,0,14.14-5.355h0l52.708-48.737h0a17.239,17.239,0,0,0,6.017-11.733V574.825Z" transform="translate(1273.28 -10.036)" fill="#4cc8ed"/>
      <path id="Path_360" data-name="Path 360" d="M353.8,549.011a9.988,9.988,0,0,0-4.242-7.31,21.061,21.061,0,0,0-11.7-3.46H231.805a20.879,20.879,0,0,0-13.989,5.235h0l-56.709,52.407h0a16.968,16.968,0,0,0-6.017,12.726c0,9.868,8.875,17.84,19.8,17.84H281.174a20.878,20.878,0,0,0,14.14-5.355h0l52.738-48.677h0a17.149,17.149,0,0,0,6.017-11.7v-11.7Z" transform="translate(1273.28 -65.088)" fill="#4cc8ed"/>
      <path id="Path_361" data-name="Path 361" d="M354.038,561.145a7.972,7.972,0,0,0-4.483-7.22,21.013,21.013,0,0,0-3.008-1.685l-48.556,44.886-.181.151a24.669,24.669,0,0,1-16.637,6.258h-106.2a25.391,25.391,0,0,1-7.641-1.173l-6.227,5.746h0a16.908,16.908,0,0,0-6.017,12.726c0,9.868,8.875,17.84,19.8,17.84H281.174a20.878,20.878,0,0,0,14.14-5.355h0l52.979-48.947h0a17.119,17.119,0,0,0,6.017-11.733V561.145Z" transform="translate(1273.28 -36.97)" fill="#4cc8ed"/>
      <path id="Path_362" data-name="Path 362" d="M175.216,533.27h-5.024a15.042,15.042,0,0,1-15.042,15.042v5.2a15.042,15.042,0,0,1,15.042,15.042h5.024a15.042,15.042,0,0,1,15.042-15.042v-5.024a15.042,15.042,0,0,1-15.042-15.223Z" transform="translate(1273.401 -75.07)" fill="#4cc8ed"/>
    </g>
  </g>
</svg>
