<?xml version="1.0" encoding="UTF-8"?>
<svg width="231px" height="35px" viewBox="0 0 231 35" version="1.1" xmlns="http://www.w3.org/2000/svg" xmlns:xlink="http://www.w3.org/1999/xlink">
    <!-- Generator: Sketch 46.2 (44496) - http://www.bohemiancoding.com/sketch -->
    <title>logo_header_dark</title>
    <desc>Created with Sketch.</desc>
    <defs></defs>
    <g id="Profile" stroke="none" stroke-width="1" fill="none" fill-rule="evenodd">
        <g id="home" transform="translate(-41.000000, -32.000000)">
            <g id="sticky-menu">
                <g id="logo_header_dark" transform="translate(41.000000, 32.000000)">
                    <g>
                        <g id="sparklean" transform="translate(52.000000, 1.000000)" fill="#0065FF">
                            <path d="M3.56845688,25.319088 C2.23524962,24.8645333 1.18759455,24.2701155 0.43494705,23.5358348 C0.143721634,23.2542685 0,22.9174931 0,22.5291892 C0,22.0102239 0.221255673,21.5906349 0.667549168,21.2649013 C1.08736762,20.9630917 1.48071104,20.8103466 1.83623298,20.8103466 C2.27685325,20.8103466 2.70045386,21.0054187 3.10136157,21.3937225 C3.5230711,21.8482773 4.15468986,22.2439423 5.00189107,22.5788774 C5.84531014,22.9119722 6.74546142,23.08128 7.70045386,23.08128 C8.96558245,23.08128 9.95083207,22.8751661 10.6486384,22.4647787 C11.3502269,22.0543912 11.7000756,21.5023004 11.7000756,20.8103466 C11.7000756,20.1423167 11.3559002,19.5828647 10.6675492,19.1411921 C9.97730711,18.6976792 8.8086233,18.3240977 7.16527988,18.0204478 C2.90090772,17.2217565 0.767776097,15.5121153 0.767776097,12.8970453 C0.767776097,11.837031 1.08736762,10.9408036 1.73600605,10.2046825 C2.37897126,9.4704018 3.22239032,8.92015131 4.26626324,8.55209079 C5.31202723,8.18218996 6.42208775,8 7.60022693,8 C9.04500756,8 10.3385023,8.22635722 11.4826021,8.68091197 C12.626702,9.13546672 13.5344175,9.76300992 14.1981846,10.5617013 C14.4856278,10.9095185 14.6312405,11.253655 14.6312405,11.5996319 C14.6312405,11.9676925 14.4440242,12.3044678 14.0658094,12.6044372 C13.8218608,12.7774256 13.5117247,12.8639198 13.1335098,12.8639198 C12.5548411,12.8639198 12.0329047,12.657806 11.5658094,12.2474185 C11.0117247,11.7523771 10.4217095,11.4008793 9.79954614,11.1947654 C9.17927383,10.9886515 8.4209531,10.8855945 7.53403933,10.8855945 C6.5128593,10.8855945 5.67133132,11.0549024 5.01701967,11.3898374 C4.36270802,11.7247725 4.03177005,12.1940497 4.03177005,12.797669 C4.03177005,13.2319804 4.14523449,13.59452 4.36838124,13.8852878 C4.58963691,14.1778959 5.01134644,14.4502607 5.63350983,14.6968613 C6.25567322,14.9453021 7.15393343,15.1900624 8.33396369,15.4274614 C10.7564297,15.9022595 12.4716339,16.5610878 13.4833585,17.4057867 C14.4931921,18.2486453 15,19.3399448 15,20.6796851 C15,21.6752888 14.720121,22.5788774 14.1660363,23.3904509 C13.6100605,24.200184 12.7931165,24.838769 11.7152042,25.3025253 C10.637292,25.7681219 9.34379728,26 7.83282905,26 C6.32186082,26 4.90166415,25.7736428 3.56845688,25.319088" id="Fill-1"></path>
                            <path d="M32.9400618,22.5918751 C33.8205973,22.0506 34.5176107,21.3101055 35.0292482,20.3703918 C35.5408857,19.4325575 35.7985582,18.3781986 35.7985582,17.2091947 C35.7985582,16.0383114 35.5408857,14.9783143 35.0292482,14.027324 C34.5176107,13.0800925 33.8205973,12.3339598 32.9400618,11.7926847 C32.0558187,11.2514096 31.0714727,10.980772 29.9833162,10.980772 C28.8933059,10.980772 27.9071061,11.2514096 27.0247168,11.7926847 C26.1423275,12.3339598 25.4527291,13.0800925 24.9503605,14.027324 C24.4498455,14.9783143 24.1995881,16.0383114 24.1995881,17.2091947 C24.1995881,18.3781986 24.4498455,19.4325575 24.9503605,20.3703918 C25.4527291,21.3101055 26.1423275,22.0506 27.0247168,22.5918751 C27.9071061,23.1312708 28.8933059,23.4037878 29.9833162,23.4037878 C31.0714727,23.4037878 32.0558187,23.1312708 32.9400618,22.5918751 M34.5713697,9.21035131 C35.9542739,10.0166257 37.0405767,11.1198496 37.822863,12.523782 C38.6088568,13.9239555 39,15.4876391 39,17.2091947 C39,18.9326298 38.6348095,20.4925546 37.9062822,21.8946075 C37.1759011,23.2985398 36.1730175,24.3961255 34.9013388,25.1930027 C33.6240989,25.9861212 32.2041195,26.3845598 30.6339856,26.3845598 C29.3697219,26.3845598 28.1944387,26.1176811 27.1081359,25.5895619 C26.0181256,25.057684 25.0930999,24.319069 24.3293512,23.3680786 L24.3293512,32.3141535 C24.3293512,32.8197195 24.1773429,33.2275553 23.8714727,33.5395403 C23.5674562,33.8458869 23.1651905,34 22.6646756,34 C22.184552,34 21.7859938,33.8458869 21.4708548,33.5395403 C21.1557158,33.2275553 21,32.8197195 21,32.3141535 L21,17.2091947 C21,15.4876391 21.3948507,13.9239555 22.1901133,12.523782 C22.9853759,11.1198496 24.0642636,10.0166257 25.423069,9.21035131 C26.7855819,8.40219748 28.3038105,8 29.9833162,8 C31.6609681,8 33.1903193,8.40219748 34.5713697,9.21035131" id="Fill-3"></path>
                            <path d="M56.9721965,22.2866489 C57.8544949,21.756696 58.5458758,21.0316909 59.0444856,20.1116336 C59.5468026,19.1934165 59.7970343,18.1611122 59.7970343,17.016561 C59.7970343,15.8701697 59.5468026,14.8323451 59.0444856,13.9012472 C58.5458758,12.9719894 57.8544949,12.243304 56.9721965,11.7133511 C56.0898981,11.1833981 55.1037998,10.9184216 54.0157553,10.9184216 C52.9240037,10.9184216 51.939759,11.1833981 51.0593142,11.7133511 C50.1751622,12.243304 49.4800741,12.9738295 48.9666358,13.9012472 C48.455051,14.8323451 48.2011121,15.8701697 48.2011121,17.016561 C48.2011121,18.1611122 48.455051,19.1934165 48.9666358,20.1116336 C49.4800741,21.0316909 50.1751622,21.756696 51.0593142,22.2866489 C51.939759,22.8147618 52.9240037,23.0815784 54.0157553,23.0815784 C55.1037998,23.0815784 56.0898981,22.8147618 56.9721965,22.2866489 M58.5718258,9.18503374 C59.9341983,9.97444285 61.012975,11.0545901 61.8063021,12.4291556 C62.5996293,13.8000409 63,15.3310162 63,17.016561 L63,24.2463709 C63,24.7229605 62.8387396,25.1185852 62.5254866,25.4314046 C62.2085264,25.7460642 61.8118628,25.9006338 61.3336423,25.9006338 C60.8535681,25.9006338 60.4569045,25.7460642 60.1399444,25.4314046 C59.8248378,25.1185852 59.665431,24.7229605 59.665431,24.2463709 L59.665431,23.0466162 C58.9036145,23.9777142 57.9768304,24.7008792 56.8906395,25.2216316 C55.8007414,25.7387037 54.6237257,26 53.3632994,26 C51.7933272,26 50.3697868,25.6098957 49.0982391,24.8333674 C47.8229842,24.0531589 46.8220575,22.978532 46.0936052,21.6039665 C45.3632994,20.2312411 45,18.703946 45,17.016561 C45,15.3310162 45.3911029,13.8000409 46.1751622,12.4291556 C46.9610751,11.0545901 48.0417053,9.97444285 49.4263207,9.18503374 C50.8072289,8.3937845 52.3382762,8 54.0157553,8 C55.6932345,8 57.2113068,8.3937845 58.5718258,9.18503374" id="Fill-5"></path>
                            <path d="M80.9778109,8.52082906 C81.6592703,8.86620152 82,9.30207265 82,9.8229017 C82,9.97434845 81.9883842,10.0814693 81.9670886,10.1479581 C81.7618764,10.8423969 81.3069248,11.1877693 80.6022338,11.1877693 C80.4860759,11.1877693 80.3176471,11.1674533 80.0911392,11.1249743 C79.1793001,10.9716807 78.4378258,10.8959573 77.8725242,10.8959573 C76.2327625,10.8959573 74.9143708,11.2524112 73.9154133,11.9708598 C72.9125838,12.6856146 72.413105,13.6515494 72.413105,14.8686641 L72.413105,24.371024 C72.413105,24.8918531 72.2679077,25.2944798 71.9852569,25.5752103 C71.7006701,25.8577878 71.274758,26 70.7055845,26 C70.1596426,26 69.7376024,25.8633285 69.4452718,25.5918325 C69.1490692,25.3221835 69,24.914016 69,24.371024 L69,9.8229017 C69,9.30207265 69.1490692,8.89944593 69.4452718,8.61871537 C69.7376024,8.33429099 70.1596426,8.19392571 70.7055845,8.19392571 C71.8439315,8.19392571 72.413105,8.73691771 72.413105,9.8229017 L72.413105,10.4397702 C73.0945644,9.68253643 73.9347729,9.08413708 74.9376024,8.64826596 C75.9365599,8.21608865 77.0071482,8 78.1454952,8 C79.3496649,8 80.2944155,8.17360969 80.9778109,8.52082906" id="Fill-7"></path>
                            <path d="M101,24.3822555 C101,24.8690768 100.801418,25.2753853 100.406129,25.6030534 C100.074535,25.8689327 99.7223337,26 99.3476515,26 C98.8624381,26 98.4671484,25.8015267 98.1580356,25.4064525 L91.8877292,17.6510154 L90.2353807,19.1039896 L90.2353807,24.1519516 C90.2353807,24.6350281 90.0873812,25.0263575 89.7913823,25.3240674 C89.49351,25.6217773 89.1019671,25.7696961 88.6186271,25.7696961 C88.1334136,25.7696961 87.7418707,25.6217773 87.4458718,25.3240674 C87.1479995,25.0263575 87,24.6350281 87,24.1519516 L87,1.6158721 C87,1.13092323 87.1479995,0.739593836 87.4458718,0.443756301 C87.7418707,0.147918767 88.1334136,0 88.6186271,0 C89.1019671,0 89.49351,0.147918767 89.7913823,0.443756301 C90.0873812,0.739593836 90.2353807,1.13092323 90.2353807,1.6158721 L90.2353807,15.0465217 L98.2591998,7.88275961 C98.5458317,7.59815642 98.8867925,7.45585482 99.2820822,7.45585482 C99.7448147,7.45585482 100.117623,7.62998704 100.406129,7.98199626 C100.690887,8.27034423 100.833266,8.60924672 100.833266,9.00619329 C100.833266,9.46867348 100.657166,9.84127899 100.306838,10.129627 L94.2332397,15.5408325 L100.636558,23.3955063 C100.878228,23.6576408 101,23.9871813 101,24.3822555" id="Fill-9"></path>
                            <path d="M108.307454,25.2160709 C107.574413,24.6965998 107.005674,23.9636734 106.604849,23.0210695 C106.200413,22.0784656 106,21.0168556 106,19.8400174 L106,1.66230747 C106,1.17494914 106.146247,0.776373147 106.444158,0.462801511 C106.742069,0.154896832 107.124839,0 107.592468,0 C108.054681,0 108.439257,0.154896832 108.735362,0.462801511 C109.031468,0.776373147 109.17952,1.17494914 109.17952,1.66230747 L109.17952,19.8400174 C109.17952,20.6636152 109.327573,21.3379831 109.625484,21.8706771 C109.9252,22.4052601 110.304359,22.6697181 110.770183,22.6697181 L111.568223,22.6697181 C111.990714,22.6697181 112.335569,22.8246149 112.602786,23.1362976 C112.866392,23.4460913 113,23.8465562 113,24.3339146 C113,24.8231619 112.795976,25.2217379 112.395151,25.5334205 C111.990714,25.8432142 111.47253,26 110.833376,26 L110.770183,26 C109.860201,26 109.036884,25.737431 108.307454,25.2160709" id="Fill-11"></path>
                            <path d="M120.960424,12.0868943 C119.967968,12.9517481 119.341642,14.1091801 119.07773,15.5573502 L129.98546,15.5573502 C129.788455,14.1091801 129.242047,12.9517481 128.349951,12.0868943 C127.454138,11.2220405 126.283262,10.7896136 124.842899,10.7896136 C123.248278,10.7896136 121.954739,11.2220405 120.960424,12.0868943 M132.574396,17.7452464 C132.29004,18.0157432 131.929485,18.1519117 131.49273,18.1519117 L119.046135,18.1519117 C119.285886,19.6644858 119.979119,20.8863218 121.125834,21.8137395 C122.27069,22.7448375 123.675741,23.2085463 125.335411,23.2085463 C125.987756,23.2085463 126.671696,23.090779 127.383514,22.8534042 C128.091615,22.6178696 128.675194,22.3216111 129.134252,21.9775097 C129.439051,21.7401349 129.799606,21.6205275 130.214059,21.6205275 C130.628512,21.6205275 130.957472,21.7290943 131.197223,21.9443877 C131.591232,22.2700879 131.786378,22.6362707 131.786378,23.0466162 C131.786378,23.4385606 131.611676,23.7624208 131.26413,24.0200368 C130.522576,24.6051932 129.597026,25.0817829 128.494916,25.4479657 C127.390948,25.8159886 126.340877,26 125.335411,26 C123.545643,26 121.938012,25.6154161 120.519952,24.8480883 C119.100033,24.0807606 117.990489,23.0134942 117.195037,21.6518094 C116.399585,20.2919648 116,18.7462687 116,17.016561 C116,15.2868534 116.377282,13.7356369 117.128129,12.3610714 C117.884552,10.9883459 118.930906,9.9173993 120.274626,9.15191167 C121.616486,8.38458393 123.138625,8 124.842899,8 C126.523013,8 127.974527,8.3680229 129.1993,9.1040687 C130.424073,9.83643427 131.362633,10.8650583 132.014978,12.1844204 C132.672898,13.5056226 133,15.0181967 133,16.7258229 C133,17.1361685 132.855034,17.4765897 132.574396,17.7452464" id="Fill-13"></path>
                            <path d="M148.971576,22.2866489 C149.855819,21.756696 150.547271,21.0316909 151.047786,20.1116336 C151.550154,19.1934165 151.798558,18.1611122 151.798558,17.016561 C151.798558,15.8701697 151.550154,14.8323451 151.047786,13.9012472 C150.547271,12.9719894 149.855819,12.243304 148.971576,11.7133511 C148.09104,11.1833981 147.10484,10.9184216 146.01483,10.9184216 C144.92482,10.9184216 143.942327,11.1833981 143.059938,11.7133511 C142.177549,12.243304 141.480536,12.9719894 140.968898,13.9012472 C140.455407,14.8323451 140.201442,15.8701697 140.201442,17.016561 C140.201442,18.1611122 140.455407,19.1934165 140.968898,20.1116336 C141.480536,21.0316909 142.177549,21.756696 143.059938,22.2866489 C143.942327,22.8147618 144.92482,23.0815784 146.01483,23.0815784 C147.10484,23.0815784 148.09104,22.8147618 148.971576,22.2866489 M150.573223,9.18503374 C151.935736,9.97444285 153.01277,11.0545901 153.808033,12.4291556 C154.603296,13.8000409 155,15.3310162 155,17.016561 L155,24.2463709 C155,24.7229605 154.84243,25.1185852 154.527291,25.4314046 C154.212152,25.7460642 153.813594,25.9006338 153.333471,25.9006338 C152.857055,25.9006338 152.456643,25.7460642 152.141504,25.4314046 C151.826365,25.1185852 151.668795,24.7229605 151.668795,24.2463709 L151.668795,23.0466162 C150.9069,23.9777142 149.980021,24.7008792 148.891864,25.2216316 C147.801854,25.7387037 146.626571,26 145.362307,26 C143.795881,26 142.372194,25.6098957 141.098661,24.8333674 C139.825129,24.0531589 138.824099,22.978532 138.093718,21.6039665 C137.363337,20.2312411 137,18.7021059 137,17.016561 C137,15.3310162 137.391143,13.8000409 138.177137,12.4291556 C138.959423,11.0545901 140.043872,9.97444285 141.426777,9.18503374 C142.809681,8.3937845 144.339032,8 146.01483,8 C147.694336,8 149.212564,8.3937845 150.573223,9.18503374" id="Fill-15"></path>
                            <path d="M175.121323,8.97526937 C176.335877,9.62729605 177.285335,10.5748589 177.973457,11.8234992 C178.655939,13.0739867 179,14.5756798 179,16.332273 L179,24.3394561 C179,24.8178553 178.83831,25.214982 178.518691,25.5289892 C178.199071,25.8448435 177.794846,26 177.309777,26 C176.822827,26 176.418602,25.8448435 176.100863,25.5289892 C175.781243,25.214982 175.619553,24.8178553 175.619553,24.3394561 L175.619553,16.332273 C175.619553,14.5756798 175.140124,13.2476142 174.177505,12.3443817 C173.214886,11.4448435 171.940168,10.9941508 170.351471,10.9941508 C169.424574,10.9941508 168.578522,11.1770139 167.813316,11.5464341 C167.053749,11.9177014 166.457753,12.4145716 166.027206,13.044433 C165.59666,13.6761416 165.378567,14.3798871 165.378567,15.1612109 L165.378567,24.3394561 C165.378567,24.8178553 165.224397,25.214982 164.916058,25.5289892 C164.605839,25.8448435 164.197854,26 163.692104,26 C163.205154,26 162.799049,25.8448435 162.479429,25.5289892 C162.15981,25.214982 162,24.8178553 162,24.3394561 L162,9.82124166 C162,9.32252437 162.15981,8.92355054 162.479429,8.61693176 C162.799049,8.31400718 163.205154,8.16254489 163.692104,8.16254489 C164.197854,8.16254489 164.605839,8.31400718 164.916058,8.61693176 C165.224397,8.92355054 165.378567,9.32252437 165.378567,9.82124166 L165.378567,10.1795793 C166.08549,9.48506927 166.927781,8.94940995 167.899801,8.56890713 C168.86994,8.18840431 169.909644,8 171.013271,8 C172.538045,8 173.906768,8.32324269 175.121323,8.97526937" id="Fill-17"></path>
                        </g>
                        <g id="Group-3">
                            <path d="M37.7204496,20.2125294 C37.7204496,19.019 37.1849147,19.0013529 36.9165581,18.7928235 C36.7306822,18.669 36.5291938,18.5634118 36.3200465,18.4719412 L26.7967752,27.2366471 C25.9890543,27.8592941 24.9745426,28.1975294 23.8996434,28.1975294 L3.75846512,28.1975294 C3.25062016,28.1975294 2.76192248,28.1201765 2.30651163,27.979 L1.12733333,29.0660588 L1.1288062,29.0666471 C0.433906977,29.6798824 0,30.5357647 0,31.4819412 C0,33.3510588 1.68289922,34.8654706 3.75846512,34.8654706 L23.8996434,34.8654706 C24.9527442,34.8654706 25.9033333,34.4748824 26.5849767,33.8460588 L26.5870388,33.8475294 L36.598124,24.6057647 L36.5972403,24.6051765 C37.2447132,24.0337059 37.6644806,23.2522353 37.7204496,22.3825294 L37.7204496,22.0448824 L37.7204496,20.2125294 Z" id="Fill-19" fill="#AAEEFF"></path>
                            <path d="M37.7247504,4.87964706 C37.7247504,4.19994118 37.1847969,3.70229412 36.9164403,3.49376471 C36.2940062,3.08170588 35.5263473,2.83670588 34.6947659,2.83670588 L14.5535876,2.83670588 C13.5137426,2.83670588 12.5743473,3.21582353 11.8947659,3.82935294 L1.12868837,13.767 L1.13016124,13.767 C0.434083721,14.3805294 0.00194418605,15.2361176 0.00194418605,16.1825882 C0.00194418605,18.0508235 1.68425426,19.5658235 3.75952558,19.5658235 L23.9001147,19.5652353 C24.9535101,19.5652353 25.9032155,19.1752353 26.5848589,18.5467059 L26.5875101,18.5467059 L36.6027194,9.31729412 L36.6015411,9.31729412 C37.2493085,8.74494118 37.669076,7.96376471 37.7247504,7.09464706 L37.7247504,6.75611765 L37.7247504,4.87964706 Z" id="Fill-21" fill="#0065FF"></path>
                            <path d="M37.7697907,12.5100294 C37.7697907,11.6017941 37.1847674,11.3512059 36.9164109,11.1435588 C36.7314186,11.0197353 36.5302248,10.9135588 36.3201938,10.8223824 L27.0985659,19.3347353 C27.0858992,19.3453235 27.0738217,19.3559118 27.0632171,19.3653235 C26.2180853,20.1276765 25.0963488,20.5473824 23.8997907,20.5473824 L3.75831783,20.5473824 C3.25047287,20.5473824 2.76206977,20.4694412 2.30665891,20.3282647 L1.12865891,21.4156176 L1.13013178,21.4156176 C0.434054264,22.0306176 0.00191472868,22.8847353 0.00191472868,23.8320882 C0.00191472868,25.7006176 1.68422481,27.2159118 3.75949612,27.2159118 L23.9000853,27.2159118 C24.9534806,27.2159118 25.903186,26.8256176 26.5848295,26.1967941 L26.5877752,26.1967941 L36.646876,16.9147353 L36.6442248,16.9147353 C37.2940543,16.3426765 37.7141163,15.5617941 37.7697907,14.6915 L37.7697907,14.3526765 L37.7697907,12.5100294 Z" id="Fill-23" fill="#00DFFF"></path>
                            <path d="M3.82662946,0 L2.87073798,0 C2.87073798,1.57970588 1.58404031,2.865 0.00188527132,2.865 L0.00188527132,3.81941176 C1.58404031,3.81941176 2.87073798,5.10529412 2.87073798,6.68470588 L3.82662946,6.68470588 C3.82662946,5.10529412 5.11450543,3.81941176 6.69666047,3.81941176 L6.69666047,2.865 C5.11450543,2.865 3.82662946,1.57970588 3.82662946,0" id="Fill-25" fill="#AAEEFF"></path>
                        </g>
                    </g>
                </g>
            </g>
        </g>
    </g>
</svg>