<svg xmlns="http://www.w3.org/2000/svg" xmlns:xlink="http://www.w3.org/1999/xlink" width="30" height="30" viewBox="0 0 300 300">
  <defs>
    <clipPath id="clip-Twitter">
      <rect width="300" height="300"/>
    </clipPath>
  </defs>
  <g id="Twitter" clip-path="url(#clip-Twitter)">
    <path id="Subtraction_3" data-name="Subtraction 3" d="M-840,75a151.11,151.11,0,0,1-30.23-3.047,149.245,149.245,0,0,1-28.157-8.74,150.017,150.017,0,0,1-25.48-13.83,151.084,151.084,0,0,1-22.2-18.316,151.076,151.076,0,0,1-18.316-22.2,150.018,150.018,0,0,1-13.83-25.48,149.24,149.24,0,0,1-8.74-28.156A151.109,151.109,0,0,1-990-75a151.112,151.112,0,0,1,3.047-30.23,149.242,149.242,0,0,1,8.74-28.157,150.019,150.019,0,0,1,13.83-25.48,151.073,151.073,0,0,1,18.316-22.2,151.081,151.081,0,0,1,22.2-18.316,150.013,150.013,0,0,1,25.48-13.83,149.245,149.245,0,0,1,28.157-8.74A151.11,151.11,0,0,1-840-225a151.1,151.1,0,0,1,30.23,3.047,149.244,149.244,0,0,1,28.156,8.74,150.008,150.008,0,0,1,25.479,13.83,151.075,151.075,0,0,1,22.2,18.316,151.073,151.073,0,0,1,18.316,22.2,150.014,150.014,0,0,1,13.83,25.48,149.248,149.248,0,0,1,8.74,28.157A151.107,151.107,0,0,1-690-75a151.1,151.1,0,0,1-3.047,30.23,149.246,149.246,0,0,1-8.74,28.156,150.016,150.016,0,0,1-13.83,25.48,151.076,151.076,0,0,1-18.316,22.2,151.077,151.077,0,0,1-22.2,18.316,150.018,150.018,0,0,1-25.479,13.83,149.246,149.246,0,0,1-28.156,8.74A151.1,151.1,0,0,1-840,75Zm-90-93.367h0A103.939,103.939,0,0,0-903.388-6.147a105.334,105.334,0,0,0,30.038,4.34,106.3,106.3,0,0,0,45.022-9.542,98.6,98.6,0,0,0,18-10.809A101.7,101.7,0,0,0-795.428-36,107.064,107.064,0,0,0-783.71-52.126a110.884,110.884,0,0,0,8.463-17.668,109.722,109.722,0,0,0,5.132-18.463,102.077,102.077,0,0,0,1.728-18.512c0-1.573,0-3.2-.114-4.8a78.576,78.576,0,0,0,10.065-8.766A79.935,79.935,0,0,0-750-130.639a73.683,73.683,0,0,1-21.244,5.71,36.751,36.751,0,0,0,16.218-20.33,72.308,72.308,0,0,1-11.236,5.44,72.57,72.57,0,0,1-12.178,3.469,36.6,36.6,0,0,0-12.021-8.523A36.8,36.8,0,0,0-805.394-148a36.7,36.7,0,0,0-14.389,2.905,36.711,36.711,0,0,0-11.723,7.916,36.767,36.767,0,0,0-7.89,11.728,36.69,36.69,0,0,0-2.889,14.341,41.576,41.576,0,0,0,.914,8.451,105.894,105.894,0,0,1-22.245-3.559,105.014,105.014,0,0,1-20.457-7.948,105.045,105.045,0,0,1-18.122-11.846,104.639,104.639,0,0,1-15.242-15.251,36.894,36.894,0,0,0-3.712,8.794,37.018,37.018,0,0,0-1.313,9.822,36.851,36.851,0,0,0,16.447,30.723A37.247,37.247,0,0,1-922.691-96.6v.457a36.931,36.931,0,0,0,2.245,12.74,36.68,36.68,0,0,0,6.207,10.8,36.939,36.939,0,0,0,9.377,8.082,36.817,36.817,0,0,0,11.753,4.581,38.777,38.777,0,0,1-9.708,1.256,46.28,46.28,0,0,1-6.967-.571A36.528,36.528,0,0,0-904.7-49.139a36.935,36.935,0,0,0,7.836,8.029,36.91,36.91,0,0,0,10,5.352,37.29,37.29,0,0,0,11.573,2.086,73.818,73.818,0,0,1-21.187,11.606,74.317,74.317,0,0,1-24.613,4.154A75.605,75.605,0,0,1-930-18.367Z" transform="translate(990 225)" fill="#fff"/>
  </g>
</svg>
